<?xml version="1.0" encoding="UTF-8"?>
<svg width="112px" height="30px" viewBox="0 0 112 30" version="1.1" xmlns="http://www.w3.org/2000/svg" xmlns:xlink="http://www.w3.org/1999/xlink">
    <title>amazon_s3</title>
    <defs>
        <polygon id="path-1" points="0.149276884 0.0370860343 56.1141173 0.0370860343 56.1141173 8.95437447 0.149276884 8.95437447"></polygon>
        <polygon id="path-3" points="0 29.0644071 111.147666 29.0644071 111.147666 0 0 0"></polygon>
    </defs>
    <g id="Symbols" stroke="none" stroke-width="1" fill="none" fill-rule="evenodd">
        <g id="components/footer/desktop" transform="translate(-220.000000, -399.000000)">
            <g id="Group-3" transform="translate(85.000000, 379.000000)">
                <g id="amazon_s3" transform="translate(135.000000, 20.000000)">
                    <path d="M46.7119122,15.5209904 L46.7119122,15.8564063 C46.786532,16.4537377 46.6746023,17.050696 46.413433,17.6103444 C46.2268836,18.0580631 45.7791649,18.3192324 45.3314461,18.3565423 C44.7344878,18.3565423 44.3613889,17.8715137 44.3613889,17.1622526 C44.3613889,15.7448497 45.5553055,15.5209904 46.7119122,15.5209904 L46.7119122,15.5209904 Z M25.8556817,15.5209904 L25.8556817,15.8564063 C25.9303014,16.4537377 25.8183718,17.050696 25.5572025,17.6103444 C25.370653,18.0580631 24.9229343,18.3192324 24.4752156,18.3565423 C23.8782573,18.3565423 23.5051584,17.8715137 23.5051584,17.1622526 C23.5051584,15.7448497 24.699075,15.5209904 25.8556817,15.5209904 L25.8556817,15.5209904 Z M61.2254608,12.4615791 C61.7104894,12.4242692 62.1955181,12.7600582 62.2701378,13.2823967 C62.4566873,13.9912847 62.5313071,14.7374826 62.4939972,15.4833074 C62.4939972,16.5656674 62.4566873,18.3565423 61.2254608,18.3565423 C59.9946074,18.3565423 59.9946074,16.1552586 59.9946074,15.1102084 C59.9946074,14.0659045 60.0688541,12.4242692 61.2254608,12.4615791 L61.2254608,12.4615791 Z M51.1890994,10.8572537 C51.0398599,10.8572537 50.8906203,11.0064932 50.8906203,11.1557328 L50.8906203,12.3496494 C50.8906203,12.498889 51.00255,12.6481286 51.1517895,12.6481286 L53.8754118,12.6481286 L50.7413807,17.2745554 C50.5921411,17.5353515 50.5175213,17.7968939 50.5175213,18.0949999 L50.5175213,19.3265995 C50.5175213,19.513149 50.7040708,19.6996985 50.8906203,19.5873957 C52.6068754,18.6546483 54.6962294,18.6546483 56.4124845,19.5504589 C56.599034,19.6623886 56.8232665,19.4758391 56.8232665,19.2892896 L56.8232665,18.0207532 C56.8232665,17.8342038 56.7109637,17.6476543 56.5244142,17.5730345 C55.5916669,17.0880059 54.5842998,16.8641465 53.5396227,16.9014564 L56.2636181,12.9092978 C56.4501675,12.6854385 56.599034,12.4242692 56.6736538,12.1630999 L56.6736538,11.1184229 C56.6736538,10.9691833 56.5617241,10.8199438 56.4124845,10.8199438 L56.3751746,10.8199438 L51.1890994,10.8572537 Z M70.3290749,10.7080141 C69.2097781,10.7080141 68.6128198,11.2676625 68.165101,12.4242692 L68.1277911,12.4242692 L68.1277911,11.1557328 C68.0904812,11.0064932 67.9785516,10.9318735 67.8296851,10.9318735 L66.3742261,10.9318735 C66.2249866,10.9318735 66.075747,11.0438031 66.075747,11.1930427 L66.075747,19.5873957 C66.075747,19.7370083 66.1876767,19.8862479 66.3742261,19.8862479 L67.9412417,19.8862479 C68.1277911,19.8862479 68.2397208,19.7370083 68.2397208,19.5873957 L68.2397208,15.0732716 C68.202784,14.5136232 68.3143406,13.9912847 68.5008901,13.4689462 C68.6501296,13.0958473 68.9859187,12.834678 69.3963275,12.7973681 C70.4783144,12.7973681 70.4036946,14.1405243 70.4036946,15.0359618 L70.4036946,19.5873957 C70.4413776,19.7370083 70.5529342,19.848938 70.7021738,19.848938 L72.3068723,19.848938 C72.4557388,19.848938 72.6049784,19.7370083 72.6049784,19.5873957 L72.6049784,14.3270738 C72.6049784,13.5062561 72.6049784,12.3869593 72.1945695,11.7153812 C71.7841607,11.081113 71.0752727,10.7080141 70.3290749,10.7080141 L70.3290749,10.7080141 Z M61.2254608,10.7080141 C58.9122474,10.7080141 57.643711,12.7227483 57.643711,15.3344409 C57.643711,17.9461335 58.9122474,19.9981776 61.2254608,19.9981776 C63.4640544,19.9981776 64.8818304,17.9461335 64.8818304,15.4090607 C64.8818304,12.7973681 63.5759841,10.7080141 61.2254608,10.7080141 L61.2254608,10.7080141 Z M34.138478,10.7080141 C33.1684208,10.7080141 32.4222229,11.1930427 32.049124,12.2750296 L32.0118141,12.2750296 L32.0118141,11.1930427 C32.0118141,11.0438031 31.8625745,10.8945636 31.713335,10.8945636 L30.2209392,10.8945636 C30.0343897,10.8945636 29.9224601,11.0438031 29.9224601,11.1930427 L29.9224601,19.5873957 C29.9224601,19.7370083 30.0716996,19.848938 30.2209392,19.8862479 L31.8252646,19.8862479 C32.0118141,19.8862479 32.1237438,19.7370083 32.1237438,19.5873957 L32.1237438,15.1478914 C32.1237438,14.1778342 32.0864339,12.834678 33.2057307,12.834678 C34.3250275,12.834678 34.1757879,14.2151441 34.1757879,15.1478914 L34.1757879,19.5873957 C34.1757879,19.7370083 34.2877176,19.8862479 34.4742671,19.8862479 L36.0785925,19.8862479 C36.265142,19.8862479 36.3770717,19.7370083 36.3770717,19.5873957 L36.3770717,15.1478914 C36.3397618,14.6255529 36.3770717,14.0659045 36.5263112,13.543566 C36.6755508,13.1331572 37.0486497,12.8719879 37.4963685,12.834678 C37.9440872,12.7600582 38.354496,13.0958473 38.4291158,13.543566 C38.4664257,14.0659045 38.5037356,14.588243 38.4664257,15.1102084 L38.4664257,19.5504589 C38.4664257,19.6996985 38.5783554,19.848938 38.7649049,19.848938 L40.3692303,19.848938 C40.5557797,19.848938 40.6677094,19.6996985 40.6677094,19.5504589 L40.6677094,14.252454 C40.6677094,13.3570165 40.7423292,12.3123395 40.2573006,11.6407614 C39.4737928,10.6333943 38.018707,10.4095349 37.0113399,11.1930427 C36.6755508,11.454212 36.3770717,11.8273109 36.2278321,12.2377197 C35.7428035,11.2303526 35.1085353,10.7080141 34.138478,10.7080141 L34.138478,10.7080141 Z M45.8537846,10.6333943 C44.324079,10.6333943 42.6451338,11.2303526 42.3093447,13.1331572 C42.2720349,13.2823967 42.3466546,13.4316363 42.4958942,13.4689462 L42.5332041,13.4689462 L44.1002196,13.6554957 C44.2494592,13.6554957 44.324079,13.5062561 44.3613889,13.3570165 C44.4733186,12.7600582 45.032967,12.3496494 45.6299253,12.3869593 C45.9657143,12.3496494 46.3015034,12.5361989 46.5253627,12.7973681 C46.7119122,13.1704671 46.7492221,13.5808759 46.7119122,13.9912847 L46.7119122,14.2151441 C45.7791649,14.3270738 44.5852483,14.4016936 43.7271207,14.7747925 C42.6451338,15.2225112 41.9735557,16.3044981 42.0108656,17.4611048 C42.0108656,19.1773599 43.0555426,19.9981776 44.3986988,19.9981776 C45.5179956,19.9981776 46.1522638,19.7370083 47.0103913,18.804261 C47.2342507,19.2142967 47.5700398,19.5873957 47.9058288,19.8862479 C48.0177585,19.9604946 48.166998,19.9235578 48.2789277,19.848938 L48.2789277,19.8862479 C48.6147168,19.5873957 49.1743652,19.0654303 49.5101542,18.804261 C49.6220839,18.6923313 49.6220839,18.5057819 49.5101542,18.3565423 C49.1370553,17.9461335 48.9131959,17.4237949 48.9131959,16.8641465 L48.9131959,14.3270738 C48.9131959,13.2450869 48.9878157,12.2377197 48.2043079,11.4915219 C47.6446595,10.8572537 46.6372924,10.6333943 45.8537846,10.6333943 L45.8537846,10.6333943 Z M24.9975541,10.6333943 C23.4678485,10.6333943 21.7889033,11.2303526 21.4531142,13.1331572 C21.4158043,13.2823967 21.4904241,13.4316363 21.6396637,13.4689462 L21.6769736,13.4689462 L23.2439891,13.6554957 C23.3932287,13.6554957 23.4678485,13.5062561 23.5051584,13.3570165 C23.617088,12.7600582 24.1767364,12.3496494 24.7736947,12.3869593 C25.1094838,12.3496494 25.4452728,12.5361989 25.6691322,12.7973681 C25.8556817,13.1704671 25.9303014,13.5808759 25.8929916,13.9912847 L25.8929916,14.2151441 C24.9602442,14.3270738 23.7663276,14.4016936 22.9082001,14.7747925 C21.8262132,15.2225112 21.1546351,16.3044981 21.191945,17.4611048 C21.191945,19.1773599 22.236622,19.9981776 23.5797782,19.9981776 C24.699075,19.9981776 25.3333432,19.7370083 26.1914707,18.804261 C26.4153301,19.2142967 26.7511191,19.5873957 27.0869082,19.8862479 C27.1988378,19.9604946 27.3480774,19.9235578 27.4600071,19.848938 L27.4600071,19.8862479 C27.7957961,19.5873957 28.3554445,19.0654303 28.6912336,18.804261 C28.8031633,18.6923313 28.8031633,18.5057819 28.6912336,18.3565423 C28.3181346,17.9461335 28.0942753,17.4237949 28.0942753,16.8641465 L28.0942753,14.3270738 C28.0942753,13.2450869 28.1688951,12.2377197 27.4226972,11.4915219 C26.788429,10.8572537 25.7810619,10.6333943 24.9975541,10.6333943 L24.9975541,10.6333943 Z" id="Fill-1" fill="#FFFFFF"></path>
                    <g id="Group-5" transform="translate(21.266639, 20.110033)">
                        <mask id="mask-2" fill="white">
                            <use xlink:href="#path-1"></use>
                        </mask>
                        <g id="Clip-4"></g>
                        <path d="M14.3643464,3.32072977 C14.7374453,3.32072977 15.1105442,3.54458913 15.2597838,3.91768807 C15.7448124,5.07392167 15.7448124,6.34283116 15.2224739,7.46212796 C15.0359244,7.79791701 14.7001354,8.02177637 14.3270365,8.05871316 C14.0658672,8.05871316 13.8420078,7.98446648 13.6554584,7.79791701 C13.431599,7.61136754 13.2823594,7.35019828 13.2077397,7.08902903 C13.09581,6.60400041 13.0211902,6.11897179 13.0585001,5.63357008 C13.0211902,5.03698488 13.1704298,4.44002658 13.4689089,3.91768807 C13.6181485,3.58152593 13.9912474,3.35803967 14.3643464,3.32072977 L14.3643464,3.32072977 Z M9.21558103,3.32072977 C9.62598986,3.32072977 9.9990888,3.54458913 10.1856383,3.91768807 C10.4094976,4.29078701 10.5214273,4.70082274 10.5214273,5.11160467 L7.90973476,5.11160467 C7.90973476,4.62657605 8.05897433,4.17885733 8.32014359,3.80575839 C8.54400295,3.50727924 8.87979199,3.32072977 9.21558103,3.32072977 L9.21558103,3.32072977 Z M44.3615008,3.09649731 C44.7715366,3.09649731 45.1446355,3.32072977 45.368868,3.69382871 C45.5927273,4.06692764 45.7042839,4.47733647 45.7042839,4.88737221 L43.0183447,4.88737221 C43.0183447,4.44002658 43.1675842,3.99230786 43.4656903,3.61920892 C43.6522398,3.28304678 43.9884019,3.09649731 44.3615008,3.09649731 L44.3615008,3.09649731 Z M24.9603561,3.09649731 C25.370765,3.09649731 25.7438639,3.32072977 25.9677233,3.69382871 C26.1915826,4.06692764 26.3035123,4.47733647 26.3035123,4.88737221 L23.6172,4.88737221 C23.6172,4.44002658 23.7664395,3.99230786 24.0649187,3.61920892 C24.2514682,3.28304678 24.5872572,3.09649731 24.9603561,3.09649731 L24.9603561,3.09649731 Z M53.8755237,2.68646158 L53.8755237,5.03698488 L54.1740029,5.03698488 L54.1740029,3.02187752 L54.8452078,5.03698488 L55.1440601,5.03698488 L55.8156382,3.05956052 L55.8156382,5.03698488 L56.1141173,5.03698488 L56.1141173,2.68646158 L55.6663986,2.68646158 L55.1067502,4.3277238 C55.0694403,4.47733647 54.9948205,4.62657605 54.9948205,4.70082274 L54.8828908,4.36540679 L54.3232424,2.68646158 L53.8755237,2.68646158 Z M51.6738669,2.68646158 L51.6738669,2.98494073 L52.4577477,2.98494073 L52.4577477,5.07392167 L52.7562269,5.07392167 L52.7562269,2.98494073 L53.5393616,2.98494073 L53.5393616,2.68646158 L51.6738669,2.68646158 Z M0.149276884,2.61184179 L1.60436274,8.80491104 L2.46249029,8.80491104 L3.43254752,4.02924465 L3.5817871,5.07392167 L4.36529486,8.76797424 L5.18611252,8.76797424 L6.67850827,2.5745319 L5.8950005,2.5745319 L5.07418284,6.15628169 L4.81301359,7.35019828 L4.55184433,6.15628169 L3.84295635,2.5745319 L3.02213869,2.5745319 L2.27594082,6.19321848 L2.01477157,7.46212796 L1.71629242,6.11897179 L0.970094544,2.53684891 L0.149276884,2.61184179 Z M9.25289093,2.46222912 C8.61862274,2.46222912 8.02166444,2.79839126 7.6858754,3.32072977 C7.20084678,4.02924465 6.97698742,4.88737221 7.0516072,5.78318275 C7.01429731,6.60400041 7.20084678,7.42481807 7.6858754,8.13333295 C8.05897433,8.65604456 8.65593263,8.95452371 9.32751072,8.95452371 C9.81253933,8.95452371 10.297568,8.76797424 10.6706669,8.4318121 C11.0810757,8.02177637 11.342245,7.49906476 11.4168648,6.93941635 L10.5960471,6.82748667 C10.3721877,7.68561423 9.92446901,8.09639616 9.32751072,8.09639616 C8.95441178,8.09639616 8.58131284,7.90984669 8.35745348,7.57368455 C8.05897433,7.08902903 7.90973476,6.56631742 7.90973476,6.00666901 L11.4168648,6.00666901 L11.4541747,5.70818987 C11.4914845,4.85043541 11.3049351,4.02924465 10.8199065,3.32072977 C10.4094976,2.76108137 9.84984923,2.46222912 9.25289093,2.46222912 L9.25289093,2.46222912 Z M35.7802253,2.35029944 L35.7802253,8.58142477 L36.601043,8.58142477 L36.601043,2.38798243 L35.7802253,2.35029944 Z M30.7060798,2.35029944 L32.4969547,8.58142477 L33.2804624,8.58142477 L35.0709642,2.38798243 L34.2505197,2.38798243 L33.2058426,6.15628169 C33.093913,6.60400041 32.9819833,7.01403614 32.9073635,7.35019828 C32.8327437,6.93941635 32.720814,6.49207073 32.6088843,6.0812888 L31.5642073,2.38798243 L30.7060798,2.35029944 Z M49.1744771,2.23874286 C48.2417298,2.16374997 47.458222,2.87301105 47.3832291,3.7680754 L47.3832291,3.99230786 C47.3832291,4.29078701 47.4209121,4.55195626 47.5328418,4.81312552 C47.6447715,5.03698488 47.8313209,5.26047114 48.0178704,5.41008382 C48.4282792,5.63357008 48.8386881,5.82011955 49.2864068,5.93242233 C49.5848859,6.00666901 49.8460552,6.11897179 50.1072244,6.26783827 C50.2937739,6.41745094 50.3680206,6.60400041 50.3680206,6.82748667 C50.3680206,7.08902903 50.256464,7.35019828 50.0699146,7.53674775 C49.8460552,7.72329722 49.547576,7.8352269 49.2487238,7.79791701 C48.9506177,7.79791701 48.6148287,7.68561423 48.3909693,7.49906476 C48.16711,7.2382686 48.0178704,6.90247956 48.0178704,6.52938062 L47.1966796,6.6786202 C47.3832291,8.02177637 48.0551803,8.65604456 49.1744771,8.65604456 C49.6968156,8.69298136 50.2191541,8.50643189 50.629563,8.13333295 C51.0026619,7.72329722 51.1892114,7.2382686 51.1519015,6.6786202 C51.1519015,6.37976795 51.1142185,6.11897179 51.0026619,5.85780254 C50.8907322,5.63357008 50.7411195,5.44702061 50.5176333,5.33509093 C50.1072244,5.11160467 49.6968156,4.9250552 49.2487238,4.81312552 C48.9506177,4.73850573 48.6521386,4.58889306 48.3536594,4.44002658 C48.2044199,4.3277238 48.0924902,4.10423754 48.0924902,3.91768807 C48.0924902,3.69382871 48.2044199,3.46959625 48.3536594,3.32072977 C48.5775188,3.1714902 48.8756249,3.05956052 49.1371672,3.09649731 C49.7714354,3.09649731 50.1072244,3.43265945 50.1814711,4.10423754 L50.965352,3.99230786 C50.927669,3.65614572 50.8534223,3.32072977 50.6668729,2.98494073 C50.5176333,2.76108137 50.2937739,2.53684891 50.0326047,2.42529233 C49.8083722,2.31336264 49.5102661,2.23874286 49.1744771,2.23874286 L49.1744771,2.23874286 Z M44.3984376,2.23874286 C43.7645425,2.23874286 43.1675842,2.53684891 42.7944853,3.05956052 C42.3840765,3.61920892 42.159844,4.44002658 42.159844,5.5216404 C42.159844,6.60400041 42.3463935,7.35019828 42.7944853,7.90984669 C43.1675842,8.4318121 43.8018524,8.73066435 44.4361206,8.73066435 C44.9211492,8.73066435 45.4061779,8.58142477 45.7792768,8.24526263 C46.1896856,7.8352269 46.4504818,7.31251529 46.5254747,6.75286689 L45.7042839,6.60400041 C45.4807976,7.46212796 45.0330789,7.8721637 44.4361206,7.8721637 C44.0253387,7.8721637 43.6522398,7.68561423 43.4287535,7.35019828 C43.1302743,6.86516967 42.9810348,6.34283116 42.9810348,5.78318275 L46.5254747,5.78318275 L46.5254747,5.4847036 C46.5627846,4.66388594 46.3762351,3.80575839 45.8908334,3.09649731 C45.5927273,2.53684891 44.995769,2.23874286 44.3984376,2.23874286 L44.3984376,2.23874286 Z M39.7723839,2.23874286 C39.1381157,2.23874286 38.5411574,2.53684891 38.2053684,3.05956052 C37.7949596,3.58152593 37.5711002,4.40234359 37.5711002,5.4847036 C37.5337903,6.34283116 37.7203398,7.20058561 38.2053684,7.90984669 C38.5411574,8.4318121 39.1381157,8.73066435 39.7347009,8.73066435 C40.2574125,8.73066435 40.7051313,8.54411488 41.0782302,8.13333295 C41.488639,7.64867743 41.7124984,7.05171913 41.7498083,6.41745094 L40.9663005,6.30552126 C40.9663005,6.71593009 40.8170609,7.12596582 40.5558917,7.46212796 C40.3693422,7.68561423 40.0708631,7.8352269 39.7723839,7.8352269 C39.361602,7.8352269 38.988503,7.61136754 38.8019536,7.2755785 C38.5038475,6.71593009 38.3919178,6.0812888 38.4288546,5.44702061 C38.3919178,4.81312552 38.5038475,4.21579412 38.8396366,3.65614572 C39.0634959,3.32072977 39.4365949,3.09649731 39.8470037,3.05956052 C40.1077999,3.05956052 40.3693422,3.1714902 40.5185818,3.35803967 C40.7424411,3.61920892 40.8539977,3.95462486 40.9289906,4.3277238 L41.7124984,4.17885733 C41.6751885,3.61920892 41.4513291,3.09649731 41.0782302,2.72339838 C40.6674483,2.38798243 40.2201026,2.23874286 39.7723839,2.23874286 L39.7723839,2.23874286 Z M29.8852621,2.23874286 C29.6987126,2.23874286 29.5121632,2.31336264 29.3629236,2.46222912 C29.1390642,2.72339838 28.9525148,3.02187752 28.8405851,3.32072977 L28.8405851,2.35029944 L28.1316971,2.35029944 L28.1316971,8.54411488 L28.9525148,8.54411488 L28.9525148,5.33509093 C28.9525148,4.88737221 28.9898247,4.47733647 29.1017543,4.06692764 C29.1390642,3.84269518 29.2509939,3.65614572 29.4002335,3.54458913 C29.5121632,3.43265945 29.6987126,3.35803967 29.8852621,3.35803967 C30.1091215,3.35803967 30.2956709,3.43265945 30.4822204,3.58152593 L30.7433897,2.61184179 C30.4822204,2.38798243 30.1837413,2.23874286 29.8852621,2.23874286 L29.8852621,2.23874286 Z M24.9603561,2.23874286 C24.326088,2.23874286 23.7291297,2.53684891 23.3560307,3.05956052 C22.9456219,3.61920892 22.7217625,4.44002658 22.7217625,5.5216404 C22.7217625,6.60400041 22.9456219,7.35019828 23.3560307,7.90984669 C23.7291297,8.4318121 24.3633978,8.73066435 24.997666,8.73066435 C25.4826947,8.73066435 25.9677233,8.58142477 26.3408222,8.24526263 C26.751231,7.8352269 27.0124003,7.31251529 27.12433,6.75286689 L26.3035123,6.60400041 C26.079653,7.46212796 25.6319342,7.8721637 25.0349759,7.8721637 C24.661877,7.8721637 24.2887781,7.68561423 24.0649187,7.35019828 C23.7664395,6.86516967 23.6172,6.34283116 23.6172,5.78318275 L27.1616399,5.78318275 L27.1616399,5.4847036 C27.1989498,4.66388594 27.0124003,3.80575839 26.5273717,3.09649731 C26.1542727,2.53684891 25.5946243,2.23874286 24.9603561,2.23874286 L24.9603561,2.23874286 Z M20.0354502,2.23874286 C19.1027028,2.16374997 18.3191951,2.87301105 18.2445753,3.7680754 L18.2445753,3.99230786 C18.2445753,4.25347711 18.3191951,4.55195626 18.4311248,4.81312552 C18.5430544,5.03698488 18.7296039,5.26047114 18.9161534,5.41008382 C19.3265622,5.63357008 19.736971,5.82011955 20.1846898,5.93242233 C20.4831689,6.00666901 20.7443382,6.11897179 21.0055074,6.26783827 C21.1920569,6.41745094 21.2666767,6.60400041 21.2666767,6.82748667 C21.2666767,7.08902903 21.154747,7.35019828 20.9681975,7.53674775 C20.7443382,7.72329722 20.445859,7.8352269 20.1473799,7.79791701 C19.8489007,7.79791701 19.5131117,7.68561423 19.2892523,7.49906476 C19.065393,7.2382686 18.9161534,6.86516967 18.9161534,6.52938062 L18.0953357,6.6786202 C18.2818852,8.02177637 18.9534633,8.65604456 20.0727601,8.65604456 C20.5950986,8.69298136 21.1174371,8.50643189 21.490536,8.13333295 C21.863635,7.72329722 22.0501844,7.2382686 22.0128745,6.6786202 C22.0128745,6.37976795 21.9755647,6.11897179 21.863635,5.85780254 C21.7517053,5.63357008 21.6024657,5.44702061 21.4159163,5.33509093 C21.0055074,5.11160467 20.5577887,4.9250552 20.11007,4.81312552 C19.8115908,4.73850573 19.5131117,4.58889306 19.2519424,4.44002658 C19.1027028,4.3277238 18.9907732,4.10423754 18.9907732,3.91768807 C18.9907732,3.69382871 19.065393,3.46959625 19.2519424,3.32072977 C19.4758018,3.1714902 19.7742809,3.05956052 20.0354502,3.09649731 C20.6697184,3.09649731 21.0055074,3.43265945 21.0801272,4.10423754 L21.863635,3.99230786 C21.8263251,3.65614572 21.7517053,3.32072977 21.5651558,2.98494073 C21.4159163,2.76108137 21.1920569,2.53684891 20.9308876,2.42529233 C20.6697184,2.27567965 20.3339293,2.23874286 20.0354502,2.23874286 L20.0354502,2.23874286 Z M12.3496121,0.223635502 L12.3496121,8.76797424 L13.09581,8.76797424 L13.09581,7.98446648 C13.2077397,8.24526263 13.431599,8.46949509 13.6554584,8.65604456 C13.8793177,8.80491104 14.140487,8.87953082 14.4016562,8.87953082 C14.9986145,8.84259403 15.5209531,8.54411488 15.8194322,8.02177637 C16.2671509,7.2755785 16.4910103,6.45438774 16.4537004,5.55932339 C16.4537004,4.96199199 16.3790806,4.36540679 16.1925311,3.80575839 C16.0432916,3.39497646 15.8194322,3.02187752 15.4836432,2.72339838 C15.185164,2.49991211 14.849375,2.35029944 14.476276,2.35029944 C14.2151068,2.35029944 13.9539375,2.42529233 13.7673881,2.5745319 C13.5435287,2.76108137 13.3569792,2.94763084 13.2077397,3.20842699 L13.2077397,0.149388814 L12.3496121,0.223635502 Z M35.7802253,1.23100263 L36.601043,1.23100263 L36.601043,0.0370860343 L35.7802253,0.0370860343 L35.7802253,1.23100263 Z" id="Fill-3" fill="#FFFFFF" mask="url(#mask-2)"></path>
                    </g>
                    <path d="M14.4388542,18.5429425 L10.3720758,20.109958 L10.3720758,25.9303014 L14.4388542,24.2886661 L14.4388542,18.5429425 Z M5.18600059,18.5429425 L5.07407091,24.5125255 L9.58856804,26.4899499 L9.58856804,20.2965075 L5.18600059,18.5429425 Z M9.8124274,16.8639973 L6.71570623,18.2075266 L9.58856804,19.43838 L12.9091486,18.2075266 L9.8124274,16.8639973 Z" id="Fill-6" fill="#FFFFFF"></path>
                    <path d="M23.6171254,2.08942866 L19.9607558,3.65644419 L19.9607558,9.51409749 L23.6171254,7.87246217 L23.6171254,2.08942866 Z M14.9985399,1.75363962 L14.9985399,7.7232226 L18.841459,8.84251941 L18.9533887,3.43258483 L14.9985399,1.75363962 Z M19.3264876,7.46197873e-05 L16.2297664,1.34323079 L19.1026282,2.57445728 L22.4232088,1.34323079 L19.3264876,7.46197873e-05 Z" id="Fill-8" fill="#FFFFFF"></path>
                    <path d="M9.36485792,10.0363614 L5.29807951,11.6033769 L5.29807951,17.4610302 L9.36485792,15.8193949 L9.36485792,10.0363614 Z M0.112004301,10.0363614 L7.46197873e-05,16.0059444 L4.51457175,17.9833687 L4.51457175,11.7899264 L0.112004301,10.0363614 Z M4.73843111,8.35741617 L1.64170994,9.70057234 L4.51457175,10.9317988 L7.83515228,9.70057234 L4.73843111,8.35741617 Z" id="Fill-10" fill="#FFFFFF"></path>
                    <path d="M19.3264876,9.81246471 L15.2597092,11.3794802 L15.2597092,17.1998237 L19.3264876,15.5581883 L19.3264876,9.81246471 Z M10.0363241,9.81246471 L9.92439439,15.7820477 L14.4388915,17.7594721 L14.4388915,11.5660297 L10.0363241,9.81246471 Z M14.6627509,8.1335195 L11.5660297,9.47667567 L14.4388915,10.7079022 L17.7594721,9.47667567 L14.6627509,8.1335195 Z" id="Fill-12" fill="#FFFFFF"></path>
                    <path d="M33.6907966,1.64163532 L29.6240182,3.20865085 L29.6240182,9.06630415 L33.6907966,7.42466883 L33.6907966,1.64163532 Z M24.4006331,1.64163532 L24.2887034,7.6112183 L28.8032006,9.58864266 L28.8032006,3.39520032 L24.4006331,1.64163532 Z M29.0270599,0 L25.9303388,1.34315617 L28.8032006,2.57438266 L32.1237811,1.34315617 L29.0270599,0 Z" id="Fill-14" fill="#FFFFFF"></path>
                    <path d="M107.452344,18.5804763 C107.526964,18.7670257 107.564647,18.9158922 107.601584,19.1024417 L107.452344,18.5804763 Z M110.213277,17.236947 C109.579008,16.4907491 108.720881,16.0060936 107.788133,15.8195441 C109.467079,14.9237336 110.325206,13.7301901 110.325206,12.2001114 C110.325206,11.1184975 109.877487,10.0738205 109.09398,9.32762265 C108.049676,8.28257253 106.594217,7.72292412 105.101821,7.76060711 C104.206757,7.76060711 103.310946,7.94715658 102.490129,8.28257253 C101.743931,8.58142477 101.109662,9.10376328 100.662317,9.73803148 C100.176915,10.4842293 99.8414992,11.3423569 99.6549497,12.2377943 L102.788608,12.7597598 C102.826291,12.1258647 103.08746,11.4915965 103.534806,11.0438778 C103.945587,10.6707788 104.467553,10.4469195 105.027201,10.4469195 C105.54954,10.4096096 106.072251,10.596159 106.44535,10.969258 C106.818449,11.3423569 107.004999,11.8270124 106.967316,12.349724 C107.004999,12.9839922 106.706147,13.5809505 106.258801,13.9913593 C105.66147,14.438705 104.915272,14.6629374 104.169074,14.5883176 L103.759038,14.5883176 L103.759038,17.27463 L103.795975,17.27463 L103.982524,17.236947 C104.691785,17.1253904 106.818449,16.9757777 107.638894,19.1401247 C107.676577,19.3266741 107.676577,19.5505335 107.676577,19.7740198 C107.713514,20.5202176 107.452344,21.3040985 106.967316,21.8637469 C106.519597,22.3857123 105.885702,22.6468816 105.213751,22.6468816 C104.579856,22.6468816 103.982524,22.4233953 103.534806,22.0126134 C103.049777,21.5275848 102.751298,20.8563798 102.676678,20.1471187 L99.4307173,20.5202176 C99.54302,21.9006837 100.214598,23.1695932 101.258902,24.0277207 C103.721355,25.9301522 107.153865,25.8182225 109.467079,23.7661784 C110.549439,22.7964942 111.183334,21.3787183 111.146024,19.8863225 C111.146024,18.9158922 110.810235,17.9831449 110.213277,17.236947 L110.213277,17.236947 Z" id="Fill-16" fill="#FFFFFF"></path>
                    <path d="M95.2147739,15.558151 C93.9835474,14.9985026 92.6777011,14.5880938 91.3718549,14.3269245 C89.6182899,13.9165157 88.536676,13.5434168 88.0885842,13.1703178 C87.7527952,12.9091486 87.5662457,12.5360496 87.5662457,12.1256408 C87.5662457,11.6779221 87.7904782,11.3048231 88.1258941,11.0436539 C88.8347821,10.5959352 89.6929097,10.3720758 90.5510372,10.4093857 C91.5584043,10.4093857 92.3046022,10.5959352 92.7896308,11.006344 C93.3492792,11.4913726 93.6850683,12.1629507 93.7600612,12.9091486 L97.1179516,11.342133 C96.8564092,10.4093857 96.3340707,9.58856804 95.5878728,8.99160974 C94.468576,8.0588624 92.7896308,7.57383379 90.5887202,7.57383379 C89.3944305,7.53652389 88.2005139,7.76038325 87.118527,8.17079208 C86.2230895,8.50658113 85.4768917,9.14084932 84.9172433,9.92435708 C84.4325878,10.6332451 84.1710454,11.4913726 84.1710454,12.3868101 C84.1710454,13.7299662 84.7680037,14.9985026 85.8126807,15.8566302 C86.5961885,16.5285814 87.9393447,17.0882298 89.8425223,17.5728853 C91.3349181,17.9459842 92.3046022,18.1698436 92.6777011,18.3190831 C93.1627298,18.4683227 93.6104485,18.729492 93.9466106,19.065281 C94.2074068,19.3637602 94.3197096,19.7368591 94.3197096,20.109958 C94.3197096,20.7815361 93.9835474,21.3788675 93.4612089,21.7519665 C92.8642506,22.236622 92.0061231,22.4604813 90.8495164,22.4604813 C89.916769,22.4981643 89.0213316,22.236622 88.2751337,21.6769736 C87.6408655,21.1546351 87.2308298,20.2965075 87.0065973,19.1772107 L83.7606366,20.7442262 C84.0594888,21.9754527 84.7306938,23.0947495 85.6634411,23.9155672 C86.8577308,24.9233074 88.5736128,25.4079629 90.8122065,25.4079629 C92.1180527,25.4452728 93.423899,25.2214135 94.6551255,24.7736947 C97.3045011,23.6543979 98.5726643,20.5949867 97.4533675,17.9459842 C97.3787477,17.7221249 97.2668181,17.5355754 97.1548884,17.3490259 C96.6698598,16.5655181 95.9986548,15.968933 95.2147739,15.558151" id="Fill-18" fill="#FFFFFF"></path>
                    <mask id="mask-4" fill="white">
                        <use xlink:href="#path-3"></use>
                    </mask>
                    <g id="Clip-21"></g>
                    <polygon id="Fill-20" fill="#FFFFFF" mask="url(#mask-4)" points="79.5073833 28.9897873 80.328201 28.9897873 80.328201 2.98479149 79.5073833 2.98479149"></polygon>
                </g>
            </g>
        </g>
    </g>
</svg>