<?xml version="1.0" encoding="UTF-8"?>
<svg width="62px" height="34px" viewBox="0 0 62 34" version="1.1" xmlns="http://www.w3.org/2000/svg" xmlns:xlink="http://www.w3.org/1999/xlink">
    <title>cisco</title>
    <defs>
        <polygon id="path-1" points="0.124779859 0.184006173 2.81191562 0.184006173 2.81191562 17.105838 0.124779859 17.105838"></polygon>
        <polygon id="path-3" points="0.167542463 0.184006173 2.84606975 0.184006173 2.84606975 17.105838 0.167542463 17.105838"></polygon>
        <polygon id="path-5" points="0.0668232944 0.111027818 2.74717988 0.111027818 2.74717988 5.60710927 0.0668232944 5.60710927"></polygon>
    </defs>
    <g id="Symbols" stroke="none" stroke-width="1" fill="none" fill-rule="evenodd">
        <g id="components/footer/desktop" transform="translate(-85.000000, -397.000000)">
            <g id="Group-3" transform="translate(85.000000, 379.000000)">
                <g id="cisco" transform="translate(0.000000, 18.000000)">
                    <polygon id="Fill-1" fill="#FFFFFF" points="17.4551914 32.5525213 20.1610506 32.5525213 20.1610506 21.8287276 17.4551914 21.8287276"></polygon>
                    <g id="Group-35" transform="translate(0.000000, 0.031206)">
                        <path d="M41.9806748,24.8703174 C41.8700559,24.8137167 40.9984477,24.2976385 39.7039481,24.2976385 C37.9544906,24.2976385 36.7409107,25.5157379 36.7409107,27.1580199 C36.7409107,28.7514488 37.9024093,30.0209837 39.7039481,30.0209837 C40.9760656,30.0209837 41.8614474,29.5160966 41.9806748,29.4517483 L41.9806748,32.3302074 C41.6412856,32.4251159 40.7163049,32.7115629 39.5147769,32.7115629 C36.4708198,32.7115629 33.7991793,30.6132469 33.7991793,27.1580199 C33.7991793,23.9556668 36.2162241,21.6070594 39.5147769,21.6070594 C40.7832358,21.6070594 41.7243574,21.9165341 41.9806748,21.9918582 L41.9806748,24.8703174 Z" id="Fill-2" fill="#FFFFFF"></path>
                        <path d="M13.7347588,24.8703174 C13.6258616,24.8137167 12.7557599,24.2976385 11.4614755,24.2976385 C9.70857459,24.2976385 8.49585554,25.5157379 8.49585554,27.1580199 C8.49585554,28.7514488 9.658215,30.0209837 11.4614755,30.0209837 C12.733593,30.0209837 13.6181139,29.5160966 13.7347588,29.4517483 L13.7347588,32.3302074 C13.3985978,32.4251159 12.475554,32.7115629 11.2669239,32.7115629 C8.22490376,32.7115629 5.55670665,30.6132469 5.55670665,27.1580199 C5.55670665,23.9556668 7.97375148,21.6070594 11.2669239,21.6070594 C12.5407632,21.6070594 13.4801631,21.9165341 13.7347588,21.9918582 L13.7347588,24.8703174 Z" id="Fill-4" fill="#FFFFFF"></path>
                        <path d="M56.1602981,27.1578907 C56.1602981,30.2255211 53.7918911,32.7114338 50.4935536,32.7114338 C47.195216,32.7114338 44.8302525,30.2255211 44.8302525,27.1578907 C44.8302525,24.0954254 47.195216,21.6069302 50.4935536,21.6069302 C53.7918911,21.6069302 56.1602981,24.0954254 56.1602981,27.1578907 M50.4935536,24.337754 C48.8880728,24.337754 47.6957989,25.6012631 47.6957989,27.1578907 C47.6957989,28.7179618 48.8880728,29.98061 50.4935536,29.98061 C52.0973127,29.98061 53.29303,28.7179618 53.29303,27.1578907 C53.29303,25.6012631 52.0973127,24.337754 50.4935536,24.337754" id="Fill-6" fill="#FFFFFF"></path>
                        <path d="M30.4233439,24.2349903 C30.3830993,24.2220776 29.2439827,23.907653 28.3078109,23.907653 C27.2235734,23.907653 26.6338928,24.2709307 26.6338928,24.786148 C26.6338928,25.4393161 27.429316,25.6672255 27.874159,25.8079741 L28.620729,26.0453528 C30.3770733,26.6040429 31.1776616,27.806647 31.1776616,29.1129832 C31.1776616,31.8070058 28.8083938,32.712187 26.7376249,32.712187 C25.298503,32.712187 23.9499852,32.4474764 23.8171995,32.4190684 L23.8171995,29.9514488 C24.0556543,30.0112777 25.1904666,30.3500212 26.3724103,30.3500212 C27.7189912,30.3500212 28.3379406,29.9563987 28.3379406,29.3486403 C28.3379406,28.8052302 27.802063,28.4916665 27.1310323,28.2807588 C26.967256,28.2258798 26.7212688,28.1488339 26.5534036,28.0939549 C25.0464898,27.6172605 23.7898676,26.7318788 23.7898676,24.956811 C23.7898676,22.9510362 25.2916162,21.6042401 27.7859221,21.6042401 C29.1032341,21.6042401 30.3426394,21.924045 30.4233439,21.9455662 L30.4233439,24.2349903 Z" id="Fill-8" fill="#FFFFFF"></path>
                        <path d="M2.6871788,10.272688 C2.6871788,9.53365036 2.08372464,8.93471565 1.34404135,8.93471565 C0.604358053,8.93471565 4.30423796e-05,9.53365036 4.30423796e-05,10.272688 L4.30423796e-05,13.0876596 C4.30423796e-05,13.8307863 0.604358053,14.4307971 1.34404135,14.4307971 C2.08372464,14.4307971 2.6871788,13.8307863 2.6871788,13.0876596 L2.6871788,10.272688 Z" id="Fill-10" fill="#FFFFFF"></path>
                        <path d="M10.0666872,6.57793015 C10.0666872,5.83889249 9.46323302,5.23802087 8.72354973,5.23802087 C7.98300559,5.23802087 7.37955143,5.83889249 7.37955143,6.57793015 L7.37955143,13.0880901 C7.37955143,13.8312168 7.98300559,14.4303667 8.72354973,14.4303667 C9.46323302,14.4303667 10.0666872,13.8312168 10.0666872,13.0880901 L10.0666872,6.57793015 Z" id="Fill-12" fill="#FFFFFF"></path>
                        <g id="Group-16" transform="translate(14.634409, 0.000000)">
                            <mask id="mask-2" fill="white">
                                <use xlink:href="#path-1"></use>
                            </mask>
                            <g id="Clip-15"></g>
                            <path d="M2.81191562,1.52277483 C2.81191562,0.783952382 2.20846146,0.183941609 1.46877816,0.183941609 C0.728018809,0.183941609 0.124779859,0.783952382 0.124779859,1.52277483 L0.124779859,15.7627005 C0.124779859,16.5058272 0.728018809,17.105838 1.46877816,17.105838 C2.20846146,17.105838 2.81191562,16.5058272 2.81191562,15.7627005 L2.81191562,1.52277483 Z" id="Fill-14" fill="#FFFFFF" mask="url(#mask-2)"></path>
                        </g>
                        <path d="M24.8258331,6.57793015 C24.8258331,5.83889249 24.2223789,5.23802087 23.4826956,5.23802087 C22.7421515,5.23802087 22.1386973,5.83889249 22.1386973,6.57793015 L22.1386973,13.0880901 C22.1386973,13.8312168 22.7421515,14.4303667 23.4826956,14.4303667 C24.2223789,14.4303667 24.8258331,13.8312168 24.8258331,13.0880901 L24.8258331,6.57793015 Z" id="Fill-17" fill="#FFFFFF"></path>
                        <path d="M32.1970558,10.272688 C32.1970558,9.53365036 31.5979059,8.93471565 30.861666,8.93471565 C30.1217675,8.93471565 29.5185285,9.53365036 29.5185285,10.272688 L29.5185285,13.0876596 C29.5185285,13.8307863 30.1217675,14.4307971 30.861666,14.4307971 C31.5979059,14.4307971 32.1970558,13.8307863 32.1970558,13.0876596 L32.1970558,10.272688 Z" id="Fill-19" fill="#FFFFFF"></path>
                        <path d="M39.579943,6.57793015 C39.579943,5.83889249 38.9807931,5.23802087 38.2411098,5.23802087 C37.5022874,5.23802087 36.9014157,5.83889249 36.9014157,6.57793015 L36.9014157,13.0880901 C36.9014157,13.8312168 37.5022874,14.4303667 38.2411098,14.4303667 C38.9807931,14.4303667 39.579943,13.8312168 39.579943,13.0880901 L39.579943,6.57793015 Z" id="Fill-21" fill="#FFFFFF"></path>
                        <g id="Group-25" transform="translate(44.118439, 0.000000)">
                            <mask id="mask-4" fill="white">
                                <use xlink:href="#path-3"></use>
                            </mask>
                            <g id="Clip-24"></g>
                            <path d="M2.84606975,1.52277483 C2.84606975,0.783952382 2.24691982,0.183941609 1.50723653,0.183941609 C0.766692387,0.183941609 0.167542463,0.783952382 0.167542463,1.52277483 L0.167542463,15.7627005 C0.167542463,16.5058272 0.766692387,17.105838 1.50723653,17.105838 C2.24691982,17.105838 2.84606975,16.5058272 2.84606975,15.7627005 L2.84606975,1.52277483 Z" id="Fill-23" fill="#FFFFFF" mask="url(#mask-4)"></path>
                        </g>
                        <path d="M54.3474822,6.57793015 C54.3474822,5.83889249 53.7483323,5.23802087 52.991432,5.23802087 C52.2517487,5.23802087 51.6525988,5.83889249 51.6525988,6.57793015 L51.6525988,13.0880901 C51.6525988,13.8312168 52.2517487,14.4303667 52.991432,14.4303667 C53.7483323,14.4303667 54.3474822,13.8312168 54.3474822,13.0880901 L54.3474822,6.57793015 Z" id="Fill-26" fill="#FFFFFF"></path>
                        <g id="Group-30" transform="translate(58.968060, 8.823688)">
                            <mask id="mask-6" fill="white">
                                <use xlink:href="#path-5"></use>
                            </mask>
                            <g id="Clip-29"></g>
                            <path d="M2.74728749,1.44900019 C2.74728749,0.709962531 2.14641587,0.111027818 1.40737821,0.111027818 C0.667694914,0.111027818 0.0668232944,0.709962531 0.0668232944,1.44900019 L0.0668232944,4.26397182 C0.0668232944,5.0070985 0.667694914,5.60710927 1.40737821,5.60710927 C2.14641587,5.60710927 2.74728749,5.0070985 2.74728749,4.26397182 L2.74728749,1.44900019 Z" id="Fill-28" fill="#FFFFFF" mask="url(#mask-6)"></path>
                        </g>
                        <polygon id="Fill-31" fill="#FFFFFF" points="60.1667258 31.1088368 60.1667258 31.2769173 59.688525 31.2769173 59.688525 32.5206269 59.4922517 32.5206269 59.4922517 31.2769173 59.0112531 31.2769173 59.0112531 31.1088368"></polygon>
                        <polygon id="Fill-33" fill="#FFFFFF" points="60.2671867 31.1088368 60.5749397 31.1088368 60.9974007 32.2668921 61.0042875 32.2668921 61.4131901 31.1088368 61.7149172 31.1088368 61.7149172 32.5206269 61.5134788 32.5206269 61.5134788 31.3634325 61.5065921 31.3634325 61.0781052 32.5206269 60.8919469 32.5206269 60.4735749 31.3634325 60.4643208 31.3634325 60.4643208 32.5206269 60.2671867 32.5206269"></polygon>
                    </g>
                </g>
            </g>
        </g>
    </g>
</svg>