<?xml version="1.0" encoding="UTF-8"?>
<svg width="102px" height="34px" viewBox="0 0 102 34" version="1.1" xmlns="http://www.w3.org/2000/svg" xmlns:xlink="http://www.w3.org/1999/xlink">
    <title>Group 7</title>
    <g id="Symbols" stroke="none" stroke-width="1" fill="none" fill-rule="evenodd">
        <g id="Group-7" transform="translate(0.837798, 0.600000)" fill-rule="nonzero">
            <path d="M71.3712056,32.2 L71.3712056,31.1951172 L67.1397603,31.1951172 C67.6228332,30.8031901 68.0797017,30.3987305 68.5103658,29.9817383 C68.9410299,29.5647461 69.3739726,29.0953451 69.8091939,28.5735352 C70.2444153,28.0517253 70.5896301,27.5139648 70.8448385,26.9602539 C71.1000468,26.406543 71.227651,25.8767578 71.227651,25.3708984 C71.227651,24.6417318 70.9735819,24.0208008 70.4654439,23.5081055 C69.9573059,22.9954102 69.1723124,22.7390625 68.1104635,22.7390625 C67.2035624,22.7390625 66.3581848,22.9760417 65.5743306,23.45 L65.5743306,23.45 L65.5743306,24.5574219 C66.3399556,24.0151042 67.1557109,23.7439453 68.0215963,23.7439453 C69.4890442,23.7439453 70.2227681,24.286263 70.2227681,25.3708984 C70.2227681,25.8448568 70.0575663,26.3780599 69.7271627,26.9705078 C69.396759,27.5629557 68.9649556,28.1371745 68.4317525,28.6931641 C67.8985494,29.2491536 67.389272,29.7390625 66.9039205,30.1628906 C66.4185689,30.5867187 65.9434713,30.9718099 65.4786275,31.3181641 L65.4786275,31.3181641 L65.4786275,32.2 L71.3712056,32.2 Z M76.4388228,32.3572266 C78.895203,32.3572266 80.1233932,30.7610352 80.1233932,27.5686523 C80.1233932,24.3762695 78.8963424,22.7800781 76.4422408,22.7800781 C73.9881392,22.7800781 72.7610885,24.3762695 72.7610885,27.5686523 C72.7610885,30.7610352 73.9869999,32.3572266 76.4388228,32.3572266 Z M76.4422408,31.4275391 C76.1619674,31.4275391 75.910177,31.4047526 75.6868697,31.3591797 C75.4635624,31.3136068 75.2254439,31.2110677 74.9725142,31.0515625 C74.7195846,30.8920573 74.5099491,30.6767253 74.343608,30.4055664 C74.1772668,30.1344076 74.0405481,29.758431 73.9334517,29.2776367 C73.8263554,28.7968424 73.7728072,28.2260417 73.7728072,27.5652344 C73.7728072,26.7540365 73.8491418,26.075 74.0018111,25.528125 C74.1544804,24.98125 74.3709517,24.5847656 74.6512252,24.3386719 C74.9314986,24.0925781 75.2094934,23.9250977 75.4852096,23.8362305 C75.7609257,23.7473633 76.0810754,23.7029297 76.4456588,23.7029297 C76.8102421,23.7029297 77.1292525,23.7473633 77.40269,23.8362305 C77.6761275,23.9250977 77.952983,24.0925781 78.2332564,24.3386719 C78.5135299,24.5847656 78.7311405,24.98125 78.8860885,25.528125 C79.0410364,26.075 79.1185103,26.7540365 79.1185103,27.5652344 C79.1185103,28.230599 79.0649622,28.8025391 78.9578658,29.2810547 C78.8507695,29.7595703 78.7129114,30.1344076 78.5442916,30.4055664 C78.3756718,30.6767253 78.1648971,30.8920573 77.9119674,31.0515625 C77.6590377,31.2110677 77.4209192,31.3136068 77.1976119,31.3591797 C76.9743046,31.4047526 76.7225142,31.4275391 76.4422408,31.4275391 Z M87.522065,32.2 L87.522065,31.1951172 L83.2906197,31.1951172 C83.7736926,30.8031901 84.2305611,30.3987305 84.6612252,29.9817383 C85.0918893,29.5647461 85.524832,29.0953451 85.9600533,28.5735352 C86.3952747,28.0517253 86.7404895,27.5139648 86.9956978,26.9602539 C87.2509062,26.406543 87.3785103,25.8767578 87.3785103,25.3708984 C87.3785103,24.6417318 87.1244413,24.0208008 86.6163033,23.5081055 C86.1081653,22.9954102 85.3231718,22.7390625 84.2613228,22.7390625 C83.3544218,22.7390625 82.5090442,22.9760417 81.72519,23.45 L81.72519,23.45 L81.72519,24.5574219 C82.490815,24.0151042 83.3065702,23.7439453 84.1724557,23.7439453 C85.6399036,23.7439453 86.3736275,24.286263 86.3736275,25.3708984 C86.3736275,25.8448568 86.2084257,26.3780599 85.8780221,26.9705078 C85.5476184,27.5629557 85.115815,28.1371745 84.5826119,28.6931641 C84.0494088,29.2491536 83.5401314,29.7390625 83.0547799,30.1628906 C82.5694283,30.5867187 82.0943307,30.9718099 81.6294869,31.3181641 L81.6294869,31.3181641 L81.6294869,32.2 L87.522065,32.2 Z M92.5896822,32.3572266 C95.0460624,32.3572266 96.2742525,30.7610352 96.2742525,27.5686523 C96.2742525,24.3762695 95.0472018,22.7800781 92.5931002,22.7800781 C90.1389986,22.7800781 88.9119479,24.3762695 88.9119479,27.5686523 C88.9119479,30.7610352 90.1378593,32.3572266 92.5896822,32.3572266 Z M92.5931002,31.4275391 C92.3128268,31.4275391 92.0610364,31.4047526 91.8377291,31.3591797 C91.6144218,31.3136068 91.3763033,31.2110677 91.1233736,31.0515625 C90.870444,30.8920573 90.6608085,30.6767253 90.4944674,30.4055664 C90.3281262,30.1344076 90.1914075,29.758431 90.0843111,29.2776367 C89.9772148,28.7968424 89.9236666,28.2260417 89.9236666,27.5652344 C89.9236666,26.7540365 90.0000012,26.075 90.1526705,25.528125 C90.3053398,24.98125 90.5218111,24.5847656 90.8020846,24.3386719 C91.082358,24.0925781 91.3603528,23.9250977 91.636069,23.8362305 C91.9117851,23.7473633 92.2319348,23.7029297 92.5965182,23.7029297 C92.9611015,23.7029297 93.2801119,23.7473633 93.5535494,23.8362305 C93.8269869,23.9250977 94.1038424,24.0925781 94.3841158,24.3386719 C94.6643893,24.5847656 94.8819999,24.98125 95.0369479,25.528125 C95.1918958,26.075 95.2693697,26.7540365 95.2693697,27.5652344 C95.2693697,28.230599 95.2158216,28.8025391 95.1087252,29.2810547 C95.0016288,29.7595703 94.8637708,30.1344076 94.695151,30.4055664 C94.5265312,30.6767253 94.3157565,30.8920573 94.0628268,31.0515625 C93.8098971,31.2110677 93.5717786,31.3136068 93.3484713,31.3591797 C93.125164,31.4047526 92.8733736,31.4275391 92.5931002,31.4275391 Z" id="2020" fill="#2E2B39"></path>
            <path d="M8.7152,18.512 C9.47786667,18.512 10.2058667,18.4392 10.8992,18.2936 C11.5925333,18.148 12.1056,17.9781333 12.4384,17.784 L12.4384,17.784 L12.4384,14.976 C12.064,15.2394667 11.5890667,15.4682667 11.0136,15.6624 C10.4381333,15.8565333 9.672,15.9536 8.7152,15.9536 C7.60586667,15.9536 6.60746667,15.6936 5.72,15.1736 C4.83253333,14.6536 4.13226667,13.9117333 3.6192,12.948 C3.10613333,11.9842667 2.8496,10.8714667 2.8496,9.6096 C2.8496,8.34773333 3.11306667,7.2384 3.64,6.2816 C4.16693333,5.3248 4.87413333,4.5864 5.7616,4.0664 C6.64906667,3.5464 7.6336,3.2864 8.7152,3.2864 C10.3098667,3.2864 11.5509333,3.60533333 12.4384,4.2432 L12.4384,4.2432 L12.4384,1.4352 C11.6341333,0.963733333 10.3930667,0.728 8.7152,0.728 C6.99573333,0.728 5.47386667,1.11626667 4.1496,1.8928 C2.82533333,2.66933333 1.80266667,3.7336 1.0816,5.0856 C0.360533333,6.4376 -5.68434189e-14,7.9456 -5.68434189e-14,9.6096 C-5.68434189e-14,11.3013333 0.336266667,12.8197333 1.0088,14.1648 C1.68133333,15.5098667 2.67626667,16.5706667 3.9936,17.3472 C5.31093333,18.1237333 6.8848,18.512 8.7152,18.512 Z M19.9218424,18.512 C21.0311757,18.512 22.0191757,18.2693333 22.8858424,17.784 C23.7525091,17.2986667 24.4285091,16.6296 24.9138424,15.7768 C25.3991757,14.924 25.6418424,13.9637333 25.6418424,12.896 C25.6418424,11.8282667 25.3991757,10.8645333 24.9138424,10.0048 C24.4285091,9.14506667 23.7490424,8.4656 22.8754424,7.9664 C22.0018424,7.4672 21.0173091,7.2176 19.9218424,7.2176 C18.8263757,7.2176 17.8383757,7.4672 16.9578424,7.9664 C16.0773091,8.4656 15.3909091,9.14853333 14.8986424,10.0152 C14.4063757,10.8818667 14.1602424,11.8421333 14.1602424,12.896 C14.1602424,13.9498667 14.4063757,14.9066667 14.8986424,15.7664 C15.3909091,16.6261333 16.0773091,17.2986667 16.9578424,17.784 C17.8383757,18.2693333 18.8263757,18.512 19.9218424,18.512 Z M19.9218424,16.1616 C19.3117091,16.1616 18.7743757,16.0194667 18.3098424,15.7352 C17.8453091,15.4509333 17.4847757,15.0626667 17.2282424,14.5704 C16.9717091,14.0781333 16.8434424,13.52 16.8434424,12.896 C16.8434424,12.2581333 16.9717091,11.6896 17.2282424,11.1904 C17.4847757,10.6912 17.8453091,10.296 18.3098424,10.0048 C18.7743757,9.7136 19.3117091,9.568 19.9218424,9.568 C20.5319757,9.568 21.0693091,9.7136 21.5338424,10.0048 C21.9983757,10.296 22.3554424,10.6912 22.6050424,11.1904 C22.8546424,11.6896 22.9794424,12.2581333 22.9794424,12.896 C22.9794424,13.52 22.8546424,14.0781333 22.6050424,14.5704 C22.3554424,15.0626667 21.9983757,15.4509333 21.5338424,15.7352 C21.0693091,16.0194667 20.5319757,16.1616 19.9218424,16.1616 Z M32.3764918,18.512 C33.0143584,18.512 33.6002251,18.3906667 34.1340918,18.148 C34.6679584,17.9053333 35.1116918,17.6037333 35.4652918,17.2432 C35.8188918,16.8826667 36.0580918,16.5429333 36.1828918,16.224 L36.1828918,18.2 L38.9492918,18.2 L38.9492918,0.312 L36.1412918,0.312 L36.1412918,9.3808 C36.0442251,9.0896 35.8327584,8.77413333 35.5068918,8.4344 C35.1810251,8.09466667 34.7511584,7.80693333 34.2172918,7.5712 C33.6834251,7.33546667 33.0698251,7.2176 32.3764918,7.2176 C31.3780918,7.2176 30.4732918,7.4568 29.6620918,7.9352 C28.8508918,8.4136 28.2095584,9.08613333 27.7380918,9.9528 C27.2666251,10.8194667 27.0308918,11.7936 27.0308918,12.8752 C27.0308918,13.9568 27.2666251,14.9274667 27.7380918,15.7872 C28.2095584,16.6469333 28.8508918,17.316 29.6620918,17.7944 C30.4732918,18.2728 31.3780918,18.512 32.3764918,18.512 Z M33.0004918,16.2448 C32.4319584,16.2448 31.9015584,16.1061333 31.4092918,15.8288 C30.9170251,15.5514667 30.5218251,15.1562667 30.2236918,14.6432 C29.9255584,14.1301333 29.7764918,13.5408 29.7764918,12.8752 C29.7764918,12.2096 29.9255584,11.6202667 30.2236918,11.1072 C30.5218251,10.5941333 30.9170251,10.1954667 31.4092918,9.9112 C31.9015584,9.62693333 32.4319584,9.4848 33.0004918,9.4848 C33.5967584,9.4848 34.1340918,9.62693333 34.6124918,9.9112 C35.0908918,10.1954667 35.4652918,10.5941333 35.7356918,11.1072 C36.0060918,11.6202667 36.1412918,12.2096 36.1412918,12.8752 C36.1412918,13.5408 36.0060918,14.1266667 35.7356918,14.6328 C35.4652918,15.1389333 35.0908918,15.5341333 34.6124918,15.8184 C34.1340918,16.1026667 33.5967584,16.2448 33.0004918,16.2448 Z M45.9957679,18.512 C47.2299012,18.512 48.2387012,18.3456 49.0221679,18.0128 C49.8056345,17.68 50.4539012,17.2016 50.9669679,16.5776 L50.9669679,16.5776 L49.5941679,14.8304 C49.2613679,15.2464 48.8003012,15.6104 48.2109679,15.9224 C47.6216345,16.2344 46.9179012,16.3904 46.0997679,16.3904 C45.4757679,16.3904 44.9245679,16.2413333 44.4461679,15.9432 C43.9677679,15.6450667 43.6003012,15.2533333 43.3437679,14.768 C43.0872345,14.2826667 42.9451012,13.7557333 42.9173679,13.1872 L42.9173679,13.1872 L51.1125679,13.1872 L51.1125679,13.1872 L51.1125679,13.0832 C51.1125679,13.0416 51.1195012,13 51.1333679,12.9584 L51.1333679,12.9584 L51.1333679,12.688 C51.1333679,11.5648 50.9011012,10.5906667 50.4365679,9.7656 C49.9720345,8.94053333 49.3341679,8.3096 48.5229679,7.8728 C47.7117679,7.436 46.7931012,7.2176 45.7669679,7.2176 C44.6992345,7.2176 43.7424345,7.46026667 42.8965679,7.9456 C42.0507012,8.43093333 41.3920345,9.09306667 40.9205679,9.932 C40.4491012,10.7709333 40.2133679,11.7034667 40.2133679,12.7296 C40.2133679,13.8944 40.4595012,14.9136 40.9517679,15.7872 C41.4440345,16.6608 42.1235012,17.3333333 42.9901679,17.8048 C43.8568345,18.2762667 44.8587012,18.512 45.9957679,18.512 Z M48.4293679,11.8768 L43.0005679,11.8768 C43.0283012,11.4053333 43.1600345,10.9616 43.3957679,10.5456 C43.6315012,10.1296 43.9573679,9.79333333 44.3733679,9.5368 C44.7893679,9.28026667 45.2677679,9.152 45.8085679,9.152 C46.3355012,9.152 46.7965679,9.28373333 47.1917679,9.5472 C47.5869679,9.81066667 47.8885679,10.1504 48.0965679,10.5664 C48.3045679,10.9824 48.4155012,11.4192 48.4293679,11.8768 L48.4293679,11.8768 Z M61.2372789,18.512 C61.9999456,18.512 62.7279456,18.4392 63.4212789,18.2936 C64.1146123,18.148 64.6276789,17.9781333 64.9604789,17.784 L64.9604789,17.784 L64.9604789,14.976 C64.5860789,15.2394667 64.1111456,15.4682667 63.5356789,15.6624 C62.9602123,15.8565333 62.1940789,15.9536 61.2372789,15.9536 C60.1279456,15.9536 59.1295456,15.6936 58.2420789,15.1736 C57.3546123,14.6536 56.6543456,13.9117333 56.1412789,12.948 C55.6282123,11.9842667 55.3716789,10.8714667 55.3716789,9.6096 C55.3716789,8.34773333 55.6351456,7.2384 56.1620789,6.2816 C56.6890123,5.3248 57.3962123,4.5864 58.2836789,4.0664 C59.1711456,3.5464 60.1556789,3.2864 61.2372789,3.2864 C62.8319456,3.2864 64.0730123,3.60533333 64.9604789,4.2432 L64.9604789,4.2432 L64.9604789,1.4352 C64.1562123,0.963733333 62.9151456,0.728 61.2372789,0.728 C59.5178123,0.728 57.9959456,1.11626667 56.6716789,1.8928 C55.3474123,2.66933333 54.3247456,3.7336 53.6036789,5.0856 C52.8826123,6.4376 52.5220789,7.9456 52.5220789,9.6096 C52.5220789,11.3013333 52.8583456,12.8197333 53.5308789,14.1648 C54.2034123,15.5098667 55.1983456,16.5706667 56.5156789,17.3472 C57.8330123,18.1237333 59.4068789,18.512 61.2372789,18.512 Z M72.4439213,18.512 C73.5532547,18.512 74.5412547,18.2693333 75.4079213,17.784 C76.274588,17.2986667 76.950588,16.6296 77.4359213,15.7768 C77.9212547,14.924 78.1639213,13.9637333 78.1639213,12.896 C78.1639213,11.8282667 77.9212547,10.8645333 77.4359213,10.0048 C76.950588,9.14506667 76.2711213,8.4656 75.3975213,7.9664 C74.5239213,7.4672 73.539388,7.2176 72.4439213,7.2176 C71.3484547,7.2176 70.3604547,7.4672 69.4799213,7.9664 C68.599388,8.4656 67.912988,9.14853333 67.4207213,10.0152 C66.9284547,10.8818667 66.6823213,11.8421333 66.6823213,12.896 C66.6823213,13.9498667 66.9284547,14.9066667 67.4207213,15.7664 C67.912988,16.6261333 68.599388,17.2986667 69.4799213,17.784 C70.3604547,18.2693333 71.3484547,18.512 72.4439213,18.512 Z M72.4439213,16.1616 C71.833788,16.1616 71.2964547,16.0194667 70.8319213,15.7352 C70.367388,15.4509333 70.0068547,15.0626667 69.7503213,14.5704 C69.493788,14.0781333 69.3655213,13.52 69.3655213,12.896 C69.3655213,12.2581333 69.493788,11.6896 69.7503213,11.1904 C70.0068547,10.6912 70.367388,10.296 70.8319213,10.0048 C71.2964547,9.7136 71.833788,9.568 72.4439213,9.568 C73.0540547,9.568 73.591388,9.7136 74.0559213,10.0048 C74.5204547,10.296 74.8775213,10.6912 75.1271213,11.1904 C75.3767213,11.6896 75.5015213,12.2581333 75.5015213,12.896 C75.5015213,13.52 75.3767213,14.0781333 75.1271213,14.5704 C74.8775213,15.0626667 74.5204547,15.4509333 74.0559213,15.7352 C73.591388,16.0194667 73.0540547,16.1616 72.4439213,16.1616 Z M82.7561707,18.2 L82.7561707,12.3552 C82.7561707,11.7866667 82.887904,11.2701333 83.1513707,10.8056 C83.4148374,10.3410667 83.7649707,9.9736 84.2017707,9.7032 C84.6385707,9.4328 85.092704,9.2976 85.5641707,9.2976 C86.3268374,9.2976 86.9265707,9.53333333 87.3633707,10.0048 C87.8001707,10.4762667 88.0185707,11.1765333 88.0185707,12.1056 L88.0185707,12.1056 L88.0185707,18.2 L90.8265707,18.2 L90.8265707,11.5856 C90.8265707,10.6010667 90.615104,9.78293333 90.1921707,9.1312 C89.7692374,8.47946667 89.221504,7.9976 88.5489707,7.6856 C87.8764374,7.3736 87.1588374,7.2176 86.3961707,7.2176 C85.8137707,7.2176 85.259104,7.32853333 84.7321707,7.5504 C84.2052374,7.77226667 83.761504,8.0496 83.4009707,8.3824 C83.0404374,8.7152 82.825504,9.0272 82.7561707,9.3184 L82.7561707,9.3184 L82.7561707,7.5296 L79.9481707,7.5296 L79.9481707,18.2 L82.7561707,18.2 Z M96.9580182,18.2 L96.9580182,9.88 L99.6828182,9.88 L99.6828182,7.5296 L96.9580182,7.5296 L96.9580182,4.8464 C96.9580182,3.9312 97.1105515,3.29333333 97.4156182,2.9328 C97.7206849,2.57226667 98.1089515,2.392 98.5804182,2.392 C98.8854849,2.392 99.1350849,2.43706667 99.3292182,2.5272 C99.5233515,2.61733333 99.6758849,2.704 99.7868182,2.7872 L99.7868182,2.7872 L100.785218,0.6032 C100.729752,0.5616 100.587618,0.492266667 100.358818,0.3952 C100.130018,0.298133333 99.8318849,0.208 99.4644182,0.1248 C99.0969515,0.0416 98.6844182,0 98.2268182,0 C97.5334849,0 96.8782849,0.162933333 96.2612182,0.4888 C95.6441515,0.814666667 95.1449515,1.3208 94.7636182,2.0072 C94.3822849,2.6936 94.1916182,3.54293333 94.1916182,4.5552 L94.1916182,4.5552 L94.1916182,7.5296 L92.1324182,7.5296 L92.1324182,9.88 L94.1916182,9.88 L94.1916182,18.2 L96.9580182,18.2 Z" id="CodeConf" fill="#E44154"></path>
        </g>
    </g>
</svg>