<?xml version="1.0" encoding="UTF-8"?>
<svg width="118px" height="29px" viewBox="0 0 118 29" version="1.1" xmlns="http://www.w3.org/2000/svg" xmlns:xlink="http://www.w3.org/1999/xlink">
    <title>mailchimp</title>
    <defs>
        <polygon id="path-1" points="7.48956532e-06 1.73260886e-05 117.554479 1.73260886e-05 117.554479 28.7926673 7.48956532e-06 28.7926673"></polygon>
    </defs>
    <g id="Symbols" stroke="none" stroke-width="1" fill="none" fill-rule="evenodd">
        <g id="components/footer/desktop" transform="translate(-843.000000, -404.000000)">
            <g id="Group-3" transform="translate(85.000000, 379.000000)">
                <g id="mailchimp" transform="translate(758.000000, 25.000000)">
                    <mask id="mask-2" fill="white">
                        <use xlink:href="#path-1"></use>
                    </mask>
                    <g id="Clip-2"></g>
                    <path d="M116.716858,20.5811582 L116.566208,20.5811582 L116.566208,20.2648704 L116.77542,20.2648704 C116.875825,20.2648704 116.984892,20.2996959 116.984892,20.419679 C116.984892,20.5744876 116.845331,20.5811582 116.716858,20.5811582 L116.716858,20.5811582 Z M117.102537,20.419679 C117.102537,20.2517026 117.020064,20.159961 116.80834,20.159961 L116.44813,20.159961 L116.44813,21.0958296 L116.566208,21.0958296 L116.566208,20.6858077 L116.734097,20.6858077 L117.013307,21.0958296 L117.146372,21.0958296 L116.867162,20.6858077 C116.993815,20.6639769 117.102537,20.5920736 117.102537,20.419679 L117.102537,20.419679 Z M116.74276,21.3247939 C116.358641,21.3247939 116.04937,21.0155232 116.04937,20.6314038 C116.04937,20.2475443 116.358641,19.9376672 116.74276,19.9376672 C117.12688,19.9376672 117.436843,20.2475443 117.436843,20.6314038 C117.436757,21.0155232 117.126706,21.3247939 116.74276,21.3247939 L116.74276,21.3247939 Z M116.74276,19.8196766 C116.295661,19.8196766 115.93138,20.1839576 115.93138,20.6314038 C115.93138,21.0785035 116.295661,21.442438 116.74276,21.442438 C117.190207,21.442438 117.554488,21.0785035 117.554488,20.6314038 C117.554488,20.1839576 117.190207,19.8196766 116.74276,19.8196766 L116.74276,19.8196766 Z M84.3898418,7.48332824 C83.7291114,7.48332824 83.1952946,8.00397721 83.1904433,8.64382966 C83.1852455,9.28844678 83.7153372,9.81697912 84.3719959,9.82217694 L84.3812654,9.91799021 L84.3812654,9.82217694 C85.0326397,9.82217694 85.5663698,9.3018745 85.5711345,8.66210868 C85.5761591,8.01714503 85.0463273,7.48843944 84.3898418,7.48332824 L84.3898418,7.48332824 Z M42.8445669,7.48332824 C42.1837499,7.48332824 41.6498465,8.00397721 41.6449952,8.64382966 C41.639884,9.28844678 42.1700623,9.81697912 42.8265478,9.82217694 L42.8359905,9.91799021 L42.8359905,9.82217694 C43.4872782,9.82217694 44.0210083,9.3018745 44.025773,8.66210868 C44.0309708,8.01714503 43.5009658,7.48843944 42.8445669,7.48332824 L42.8445669,7.48332824 Z M48.7635919,15.8610985 L48.6214314,16.097513 L48.5853065,15.823934 C48.480397,15.0266741 48.4286786,14.1962346 48.3921206,13.489157 C48.134395,8.50426801 49.6423711,3.53843777 50.9562084,3.47008635 L50.9816778,3.46956656 C51.1505205,3.46956656 51.2987452,3.55437777 51.4225401,3.72166115 C52.0098079,4.51588905 52.0185576,7.41428378 51.0084466,10.7123047 C50.4310547,12.5970367 49.6548459,14.3775522 48.7635919,15.8610985 L48.7635919,15.8610985 Z M34.5421652,15.1203216 C34.024375,17.2042169 33.0316768,19.7181457 31.2415453,19.8620389 C31.1915595,19.865764 31.1427866,19.8680164 31.0956596,19.8680164 C30.35341,19.8680164 29.9369774,19.3819329 29.8584036,18.4231938 C29.7599048,17.2231023 30.2773485,15.8175234 31.1762259,14.8418913 C31.7485066,14.2205778 32.3939901,13.8784742 32.9932995,13.8784742 L33.0055144,13.8784742 C33.7626644,13.884365 34.2931893,14.4921642 34.5373139,15.058814 L34.5500485,15.0886148 L34.5421652,15.1203216 Z M53.7995928,18.611615 C53.647643,18.4420793 53.4271686,18.4229339 53.2649097,18.5775693 L53.1880685,18.6508586 C52.7946797,19.028654 52.0622193,19.7317467 51.2642663,19.773156 C50.2870749,19.8213226 49.5644904,19.2367403 49.0972924,18.0310178 L49.0778005,17.9806855 L49.1106335,17.9378035 C51.7976499,14.4231198 53.6835947,9.06008894 53.4974258,5.46336621 C53.4116617,3.79850236 52.9273975,1.81397217 51.1095443,1.81397217 C51.0649296,1.81397217 51.0197952,1.815185 50.973881,1.81761065 C50.2774589,1.85356228 49.6440171,2.18535688 49.0914015,2.80381161 C47.4044469,4.69096918 46.5215961,9.33644005 46.8420421,14.6388296 C46.9085743,15.7405955 47.0998543,16.7697652 47.4105977,17.6978371 L47.4279238,17.7496421 L47.3924919,17.7912248 C46.3953755,18.9564908 45.4115136,19.5985091 44.6222236,19.5985091 C42.7225046,19.5985091 42.7866978,16.413974 42.936915,13.7724385 C42.9693148,13.2031032 43.0175679,12.8403816 42.8489851,12.6341145 C42.7283955,12.4864096 42.5270663,12.41364 42.2334758,12.411301 L42.1991701,12.4111277 C41.5235393,12.4111277 41.382245,12.5499963 41.0360698,13.5530902 C40.3166906,15.6375053 38.8964711,19.1343431 37.4679351,19.1343431 C37.0718607,19.1313111 36.7695205,18.9956478 36.5629069,18.7319447 C35.8698633,17.847188 36.3960566,15.6411438 36.8187266,13.8680785 C36.8947881,13.5491919 36.9677309,13.2432131 37.0300182,12.9601915 C37.1227128,12.5396873 37.094298,12.2328423 36.9455535,12.0475398 C36.7969823,11.8625838 36.4994068,11.7873019 36.1065377,11.8185755 C35.4947535,11.8674351 35.1035304,12.1236013 34.9145894,13.2870481 L34.8768186,13.5291802 L34.7343981,13.3569589 C34.4674031,12.9625305 33.9461477,12.4923871 32.9792653,12.4923871 C32.8944541,12.4923871 32.8067841,12.495679 32.7161687,12.5032159 C31.6840536,12.5880271 30.5089116,13.3067132 29.6490179,14.3798912 C28.6447111,15.6329139 28.165125,17.2186842 28.2986225,18.8449975 C28.3057262,18.9310215 28.318201,19.0134937 28.3305025,19.0958792 L28.3375196,19.1414468 L28.306246,19.1756659 C27.7054639,19.8302455 27.0934198,20.1622133 26.4870067,20.1623866 C25.5509648,20.155023 25.0139426,19.4591207 25.0139426,18.3004385 C25.0139426,16.3499541 26.3357499,10.470086 26.3357499,8.34148941 C26.3357499,6.07627659 25.3262454,4.84274571 23.5734516,4.82940463 L23.5470293,4.82923137 C20.9877928,4.82923137 18.9925204,7.73377685 17.0837919,13.709025 C16.908885,14.2564428 16.7187312,14.8886718 16.5556927,15.43505 L16.2877448,16.3334943 L16.3672715,15.3993582 C16.5445174,13.3178886 16.6663198,11.2927287 16.7293001,9.37992853 C16.8242471,6.49210272 16.4338903,4.63361983 15.5357059,3.6981843 C15.0512684,3.19373523 14.4101165,2.94545238 13.5754322,2.9389551 L13.5532548,2.9389551 C10.4212178,2.9389551 8.92077852,8.22115973 7.82836864,11.9485212 C7.57783339,12.8033037 7.14234216,14.4735387 6.75726984,15.9877522 C6.99238486,13.4401241 7.41808686,8.90770599 7.38594696,6.30264194 C7.34670337,3.11767371 6.28608686,1.68957085 3.94689164,1.67163835 L3.9180437,1.67163835 C2.66865946,1.67163835 1.80174861,2.29277863 1.29444074,2.81386074 C0.480374469,3.64975789 -0.027193296,4.87176691 0.0011348588,5.92701234 C0.0182876865,6.56851077 0.412023049,7.13949202 0.710378295,7.13949202 C0.904863639,7.13949202 1.01237202,6.88012047 1.05915246,6.72565839 C1.78286318,4.33318545 2.719165,3.17008512 3.92150892,3.17008512 C4.42024038,3.17398349 4.79093205,3.32082209 5.06892914,3.61917734 C6.00800314,4.62668939 5.83725454,7.34697193 5.52737744,12.2856002 C5.42749254,13.8770881 5.31435318,15.6805606 5.21871317,17.7319695 C5.20234002,18.0837758 5.18042252,18.4239735 5.15963121,18.7469318 C5.06823609,20.1718293 4.99589967,21.297332 5.53621375,21.3808438 C6.23913316,21.4906046 6.69680179,21.2053305 6.93070399,20.5093415 C7.27800543,19.4767067 8.05681311,16.6551531 9.56374967,11.4983028 C11.0096118,6.55014511 12.1020216,4.74970462 13.4997172,4.74970462 C15.1143354,4.74970462 15.2347517,7.52222531 14.9386489,13.3725524 C14.8758418,14.6124939 14.7912905,16.0174664 14.7265775,17.546667 C14.7174813,17.7612506 14.707259,17.9695102 14.6973831,18.1701463 C14.6352691,19.4354706 14.5861496,20.4350126 14.9476584,20.8176593 C15.0604513,20.9367761 15.2139604,20.9959447 15.4170222,20.9972442 C16.1169095,20.9972442 16.3273349,20.3833809 16.6759358,19.3663395 C16.7376166,19.1864947 16.8031093,18.995128 16.8759655,18.7940588 C19.2745025,12.1780052 21.0478277,6.4376988 23.4280857,6.4376988 C24.1422671,6.4376988 24.6973084,7.01751635 24.6973084,8.14865005 C24.6973084,10.7591718 23.4210687,15.8038358 23.4210687,18.3612531 C23.4210687,19.2771101 23.6846851,20.1002726 24.1830701,20.6781843 C24.6944496,21.2713429 25.4099304,21.5881504 26.2520649,21.5946477 L26.2706038,21.5946477 C27.0669109,21.5946477 27.8968305,21.2074096 28.737579,20.4446286 L28.816326,20.3730718 L28.8797395,20.4583162 C29.4333081,21.2031647 30.3264679,21.602791 31.290838,21.5282022 C32.7701394,21.4131569 34.0114671,20.0957678 34.4731207,18.854007 L34.5634762,18.6108354 L34.6538318,18.854007 C34.9961953,19.7757549 35.7385316,20.8866171 37.3248216,20.7577976 C39.054485,20.6188424 40.4268845,18.2666526 40.936618,17.2616529 L41.0680364,17.0024546 L41.117589,17.2888548 C41.3619735,18.7029235 42.1310786,21.0780704 44.5369792,21.0965227 L44.5569042,21.0967826 C45.5975091,21.0967826 46.7781088,20.4603953 47.97101,19.2565787 L48.0585934,19.168129 L48.1221801,19.2748577 C48.9254176,20.6179761 50.0028404,21.3316377 51.1495676,21.2729023 C52.8385147,21.1854055 53.8632662,19.9881728 53.9536218,19.1573868 C53.9767521,18.9455754 53.9205289,18.7464986 53.7995928,18.611615 Z M108.797189,18.1517807 L108.779257,18.1190343 L108.743738,18.005895 L108.760025,17.9717626 C109.88085,15.6631479 111.164626,14.3391749 112.282419,14.3391749 L112.293681,14.3391749 C113.555453,14.3489641 114.427995,15.4839095 114.415693,17.0991341 C114.407377,18.1774233 113.932296,18.798217 113.535441,19.1288854 C113.082538,19.5063343 112.47933,19.7226505 111.880453,19.7226505 C110.403838,19.7115618 109.390435,18.8624102 108.797189,18.1517807 L108.797189,18.1517807 Z M108.491644,26.8685358 C108.311279,27.1085021 108.060311,27.2300447 107.745669,27.2300447 C107.384767,27.2272725 107.113353,27.1008787 106.929004,26.8546749 C106.41208,26.1636239 106.557706,24.5404293 107.401226,21.5920488 C107.501718,21.2404158 107.611305,20.8863572 107.726697,20.5397488 L107.824763,20.2457251 L107.910873,20.5434739 C108.893782,23.9457979 109.089221,26.0738748 108.491644,26.8685358 L108.491644,26.8685358 Z M72.3650165,11.1947497 C72.3980227,10.4599503 72.459617,9.7443828 72.5475469,9.06805894 C73.116449,4.70846853 74.3050187,1.66366835 75.4379716,1.66366835 L75.4429095,1.66366835 C75.9827905,1.66773998 76.2533373,2.07620252 76.2473598,2.87736086 C76.2322861,4.84577778 74.9852409,7.66386609 72.5407897,11.2534851 L72.349423,11.5344276 L72.3650165,11.1947497 Z M112.008147,21.1391448 L112.047824,21.1394047 C114.426695,21.1394047 116.101002,19.4916071 116.119284,17.132227 C116.128117,15.9644486 115.790778,14.8956888 115.169292,14.1228586 C114.51168,13.3052405 113.591405,12.868883 112.507485,12.8605665 L112.485567,12.8603932 C111.022725,12.8603932 109.664533,13.9705623 108.332764,16.2544007 L108.226641,16.4361514 L108.158377,16.236988 C107.82225,15.2581506 107.522596,14.4427849 107.343617,13.9556619 C107.218609,13.615031 107.162646,13.4623882 107.149825,13.4130088 C107.086238,13.1656789 106.874687,13.012343 106.598076,13.012343 C106.427674,13.012343 106.246962,13.0700389 106.075781,13.1788467 C105.906332,13.286615 105.811558,13.4188997 105.777599,13.5948461 L105.768936,13.6212684 C104.436213,17.777797 103.337046,19.7964596 102.406462,19.7966329 C102.271145,19.7955933 102.164936,19.750892 102.086102,19.6635685 C101.842411,19.3938013 101.902186,18.7526494 101.985178,17.8651205 C102.045906,17.2137462 102.115123,16.4753083 102.086276,15.6920825 C102.031265,14.1871384 101.20767,13.28263 99.8831767,13.2724076 C98.2000338,13.2722343 97.1091833,15.0643583 96.6068134,16.1326849 L96.4570293,16.4516582 L96.4236766,16.1007183 C96.2983224,14.7782179 95.8546012,13.1992915 94.4535271,13.188636 C92.819417,13.188636 91.5742777,15.1067206 90.8150485,16.7159677 L90.6113803,17.147214 L90.6313053,16.6707466 C90.7219207,14.5240442 90.7960764,13.2572473 90.8516065,12.9053544 C90.9071366,12.5530284 90.8780288,12.3160075 90.7626371,12.180864 C90.6533961,12.0534306 90.4473889,12.0065636 90.144962,12.0258821 C89.6218874,12.058975 89.3541993,12.3771686 88.9518009,13.4446289 C88.2904641,15.1978558 86.6073212,19.2758973 85.2635964,19.2758973 C84.9971212,19.274078 84.7860028,19.1830294 84.6314541,19.0060435 C84.0677498,18.3594338 84.2931622,16.6135705 84.6051184,14.1966678 L84.6286819,14.0139642 C84.7761269,12.8696627 84.5242922,12.6256247 83.9033252,12.5110993 C83.8363599,12.4987111 83.7728598,12.4924737 83.7144709,12.4924737 C83.2179918,12.4924737 82.9859088,12.967815 82.5222627,14.2884961 C81.6974542,16.6392131 80.6369244,19.1117326 79.39577,19.1117326 C79.3506356,19.1117326 79.3052412,19.1080075 79.26028,19.1004706 C78.6028416,18.9889773 78.6171356,18.0131719 78.6354146,16.7780817 C78.6450306,16.1099011 78.6563792,15.3526644 78.5532023,14.6688037 C78.3678998,13.4419434 77.6448821,12.6753506 76.6663913,12.6677271 C74.7127015,12.6674672 73.395399,15.1692678 72.7825753,16.660351 L72.6438799,16.9978632 L72.5977925,16.6358345 C72.5154936,15.9893982 72.4073788,14.9644734 72.3602519,13.7524269 L72.3588658,13.7167351 L72.3811298,13.6885802 C76.0370211,9.08677111 77.6771953,5.76587971 77.6990262,2.92058945 C77.7130603,1.10282286 76.8744776,0.0110193923 75.4559041,1.73260886e-05 C74.4190243,1.73260886e-05 71.9522225,0.863982733 71.0952741,8.86716294 C70.9363073,10.3511424 70.8488971,11.8727195 70.8358159,13.3898785 L70.8355561,13.4194195 L70.8186631,13.4435893 C69.1464357,15.8646503 65.5765684,20.0288891 62.0816364,20.0288891 C58.9240434,20.0288891 56.4046569,17.4745039 56.4046569,12.9649561 C56.4046569,6.91979721 60.6838542,3.20820252 63.9037345,3.20820252 L63.9302435,3.20837578 C64.6300442,3.21366024 65.2300466,3.40909851 65.6657111,3.77363942 C66.117922,4.15204119 66.3542499,4.6824794 66.3494852,5.30734478 C66.3433344,6.14211573 66.0716614,6.57076316 65.8088246,6.98528983 C65.7413395,7.0919319 65.6740276,7.19796757 65.6124334,7.31032725 C65.5503194,7.42355324 65.4936631,7.58815108 65.5762219,7.72909881 C65.6608598,7.87325187 65.8769161,7.96395394 66.1403593,7.96594644 C66.9071254,7.96594644 68.0661541,6.85655699 68.0788887,5.18467607 C68.0922298,3.43500102 66.6182995,1.63196161 63.9884591,1.63196161 C60.0090897,1.63196161 54.6500439,6.00376691 54.6500439,13.0890109 C54.6500439,18.1010152 57.7922167,21.5648468 62.0489768,21.5648468 C65.0698669,21.5648468 68.0580108,19.4023777 70.704051,15.789715 L70.8661366,15.5706266 L70.8778317,15.8430794 C70.933795,17.1648 71.0300414,18.2073108 71.1001254,18.968186 C71.1452599,19.4573014 71.1780062,19.8105804 71.1766201,20.0054989 C71.1732415,20.4330201 71.2431523,20.729123 71.3903374,20.9111335 C71.5374359,21.093404 71.7713381,21.1797745 72.1260031,21.1822868 C72.7203746,21.1822868 72.8392316,20.7767697 73.0745199,19.7778341 L73.1422649,19.4923868 C73.4346426,18.2810333 74.5149242,14.3274798 76.1399381,14.3274798 C76.4052871,14.3295589 76.6098216,14.4087391 76.7552741,14.5629413 C77.1142707,14.9436821 77.0749404,15.7243956 77.0295461,16.6290774 C77.0011313,17.1935613 76.9717636,17.7769307 77.0284199,18.3449665 C77.1814959,19.8782388 77.8434391,20.6281119 79.0526268,20.6372081 C80.2944742,20.6373813 81.5900325,19.3002404 82.2734601,18.0575267 L82.4025394,17.8227582 L82.4526985,18.0859415 C82.5790056,18.7509168 83.1434896,20.9344371 84.9104907,20.9344371 C86.512201,20.9344371 87.88564,19.2473959 89.3919702,15.777067 L89.5887946,15.32347 L89.5767529,15.8178699 C89.5445264,17.1332665 89.4734894,18.739395 89.4730563,19.9812423 C89.4724499,20.9415408 89.5693893,21.3080742 90.0132837,21.3080742 L90.113775,21.3130121 C90.5398236,21.3130121 90.8290826,21.058232 90.973149,20.5557754 C92.1060153,16.6062936 93.0856324,14.7670426 94.0558067,14.7670426 C95.0062293,14.7741463 95.095372,16.5114332 95.1716934,19.5813562 L95.1765448,19.7961997 C95.1997617,20.8701573 95.2379657,21.3448922 95.9055399,21.3502632 C96.4113751,21.3502632 96.5373357,20.952976 96.7989597,19.9739654 C96.8488588,19.7868436 96.9036093,19.5822225 96.9671094,19.3614882 C97.8821867,16.1867423 98.6406363,14.8918771 99.5850814,14.8918771 C100.393257,14.8980279 100.438391,15.7314127 100.453118,16.0054248 C100.484565,16.5920862 100.424184,17.205603 100.365795,17.7987616 C100.311478,18.349558 100.255601,18.9188932 100.276739,19.4495913 C100.326205,20.6912655 101.006081,21.3798909 102.191272,21.3890737 C103.729222,21.3892469 105.117735,19.5905391 106.333506,16.0434556 L106.417971,15.7963855 L106.514217,16.0393839 C106.734778,16.5962444 107.022132,17.3510555 107.288347,18.2514057 L107.298483,18.285798 L107.283756,18.3184576 C106.106534,20.9327911 105.276008,23.8450467 105.264227,25.4003231 C105.24846,27.4497395 106.175579,28.781336 107.626379,28.7926846 L107.651415,28.7926846 C108.440618,28.7926846 110.280389,28.4760503 110.315821,25.5433499 C110.330288,24.3414392 110.04666,22.6418365 109.472647,20.4916689 L109.406808,20.2455518 L109.618966,20.3864129 C110.351166,20.8724097 111.177447,21.1327342 112.008147,21.1390582 L112.008147,21.1391448 Z" id="Fill-1" fill="#FFFFFF" mask="url(#mask-2)"></path>
                </g>
            </g>
        </g>
    </g>
</svg>