<?xml version="1.0" encoding="UTF-8"?>
<svg width="103px" height="37px" viewBox="0 0 103 37" version="1.1" xmlns="http://www.w3.org/2000/svg" xmlns:xlink="http://www.w3.org/1999/xlink">
    <title>meetup</title>
    <g id="Symbols" stroke="none" stroke-width="1" fill="none" fill-rule="evenodd">
        <g id="components/footer/desktop" transform="translate(-550.000000, -402.000000)" fill="#ff0000" fill-rule="nonzero">
            <g id="Group-3" transform="translate(85.000000, 379.000000)">
                <g id="meetup" transform="translate(465.000000, 23.000000)">
                    <path d="M60.3818067,19.7173029 C60.2409234,19.9302455 60.1509779,20.0762759 60.052889,20.2169386 C59.1366328,21.5292637 58.1084641,22.727452 56.7068921,23.5565936 C54.8282212,24.6672446 52.7919758,25.1253727 50.6695717,24.6653328 C49.580557,24.4290628 48.5673699,23.8195734 47.5417196,23.3332833 C47.3053209,23.22172 47.1761105,23.2188891 46.9659804,23.3429157 C46.0862502,23.8617979 45.230601,24.4434195 44.2991241,24.846823 C42.6458408,25.5625631 40.9050018,25.9635953 39.1056881,25.487581 C37.9778863,25.1891966 37.0022731,24.5537879 36.1208517,23.7894629 C35.4957739,23.2475658 35.4556266,23.2480438 34.8216333,23.7694995 C33.6816623,24.7075757 32.3656056,25.3124328 30.9884823,25.8120869 C29.280217,26.4324587 27.5184771,26.81259 25.7166083,26.9910471 C23.5181375,27.208714 21.4795575,26.8353475 19.9918084,25.0281294 C18.7992636,23.5800681 18.480346,21.9002773 19.2098914,20.1540338 C20.0089593,18.2419988 20.9329178,16.3814163 21.8005707,14.4984991 C22.2529819,13.5174814 22.7083342,12.5374012 23.1471423,11.5505379 C23.2274002,11.3692499 23.2598453,11.1577411 23.2689998,10.9576295 C23.286169,10.5897042 23.3610408,10.1867419 22.9356152,9.96536173 C22.5009615,9.7399374 21.9881271,9.78058106 21.669522,10.1837272 C21.2701075,10.6881056 20.9167412,11.2405726 20.6194597,11.8116243 C19.6346736,13.7018393 18.6818915,15.6094258 17.7212967,17.5120306 C17.0006852,18.9386947 16.2938973,20.3717007 15.5667233,21.7946699 C14.8777664,23.1443482 13.5828127,23.6585796 12.1793841,23.1337415 C11.7066787,22.9562587 11.4101693,22.6075615 11.330518,22.0771351 C11.2178335,21.3245932 11.4645998,20.6506732 11.7315686,19.9770105 C12.3145872,18.5033976 12.9051611,17.0325604 13.4879408,15.5584695 C13.8000201,14.7681149 14.1123016,13.9770985 14.4052999,13.1794644 C14.6105587,12.6217584 14.6722319,12.0302838 14.4328001,11.4824676 C14.2475047,11.0600934 13.8828332,10.7548524 13.3712488,10.8001836 C12.8125685,10.8497243 12.3730435,11.1415829 12.1624355,11.6602997 C11.421401,13.4898525 10.7106058,15.3314275 9.98151992,17.1657047 C9.10949195,19.3612159 8.25194937,21.5626831 7.34354247,23.7433412 C7.00729019,24.5491923 6.50009925,25.2829656 5.64674787,25.6278761 C5.21475964,25.8030243 4.72567544,25.9113339 4.26050685,25.9178597 C2.80917347,25.9368671 1.55574585,25.4520109 0.699692247,24.2202195 C0.018335809,23.2406172 -0.147501001,22.1503892 0.181490202,20.9970542 C0.48573859,19.9293631 0.790042125,18.8617272 1.1091987,17.7982457 C1.41160884,16.7904816 1.73308161,15.7881034 2.04699918,14.7833724 C2.3395747,13.8479064 2.61310596,12.9053633 2.93035076,11.9783717 C3.55469323,10.153488 4.05815253,8.27387966 5.04757101,6.59993448 C5.72450575,5.45455906 6.82109407,4.83532692 8.0787129,4.45118829 C9.39357476,4.05015615 10.5136559,4.55501252 11.636237,5.11360087 C12.0619385,5.32487068 12.4820148,5.55080972 12.9189479,5.73487347 C13.5285293,5.9908127 14.0843235,5.82878954 14.5766982,5.42775741 C14.9796605,5.0997221 15.3862992,4.77194414 15.7577356,4.40920271 C16.6856831,3.50329583 18.6902739,3.33542704 19.6698761,4.38968052 C19.8955026,4.6324579 20.1617544,4.83725708 20.4109105,5.05725857 C20.9237081,5.51020282 21.13575,5.55641637 21.7290629,5.22159793 C23.1400283,4.42491973 24.6016926,4.53523297 26.0385039,5.04593497 C26.8720573,5.34251786 27.3710129,6.05066605 27.689618,6.88938498 C28.1582609,8.12422791 27.961789,9.31658894 27.4921718,10.4772586 C26.6283057,12.6125304 25.6873985,14.7162028 24.84447,16.859471 C24.3448343,18.1309318 23.9228829,19.438312 23.5638363,20.7560783 C23.4176037,21.293104 23.4166478,21.929873 23.5530642,22.4694355 C23.7594627,23.2861506 24.5075192,23.5537444 25.2641052,23.6495906 C26.4162638,23.7956394 27.5468597,23.5815019 28.6506907,23.2762241 C29.5934177,23.0165348 30.5216041,22.6960179 31.4422905,22.3632951 C31.8865215,22.2027058 32.3005133,21.9561784 32.7245419,21.740846 C33.0872833,21.5574257 33.1152982,21.288876 32.9241388,20.9511899 C32.5336398,20.2620492 32.1229385,19.5815667 31.7789472,18.8687126 C31.0515526,17.361956 30.4530191,15.8070925 30.6126893,14.0888088 C30.7521755,12.5848648 31.2952858,11.2786611 32.6829607,10.4870932 C34.7316143,9.31941984 36.3940704,9.64183012 37.8998711,11.3864008 C39.2021226,12.895547 39.631574,14.712177 39.0725077,16.6585138 C38.7597299,17.7468116 38.3122268,18.7987489 37.8853306,19.8512009 C37.7672048,20.1425999 37.8357714,20.3292556 38.0201293,20.5008744 C38.8825616,21.3064681 39.8659138,21.9322628 40.9575389,22.3750599 C41.369141,22.5427448 41.8042726,22.6676354 42.2405072,22.7552647 C43.1787672,22.943299 44.0492143,22.7200071 44.8308556,22.1898197 C45.203064,21.9376121 45.2112075,21.7019303 44.9529704,21.349961 C43.1550538,18.8978304 42.4433762,16.168492 42.9836372,13.1693173 C43.186065,12.0464604 43.705462,10.985865 44.9107275,10.6625356 C45.6557509,10.4624607 46.4977603,10.4709166 47.2724347,10.569557 C48.5314138,10.7296684 49.6716054,11.2321534 50.4450665,12.3160578 C51.373014,13.6166365 51.6099641,15.0400101 51.2106048,16.5948736 C50.9238565,17.7116459 50.3380437,18.6616707 49.6930026,19.5844343 C49.4375597,19.950264 49.4277067,20.2874538 49.7759443,20.5321062 C50.3122163,20.9089838 50.8572017,21.3222035 51.4632168,21.5404219 C52.7800272,22.0142486 54.1463784,21.9729248 55.473005,21.5465065 C56.9245958,21.0789665 57.9445475,20.1160924 58.5262243,18.6872959 C59.2209716,16.9786262 59.229446,15.1888898 59.1942435,13.3926828 C59.1662838,11.989199 59.1172393,10.5858439 59.0756398,9.18190053 C59.0608602,8.68059198 58.9801244,8.65149252 58.5022168,8.74871744 C57.2432376,9.0030574 55.9778982,9.22820599 54.7143969,9.45923697 C54.3159016,9.53157202 53.9138952,9.58063485 53.5156572,9.65247357 C52.6476182,9.8086511 51.9314553,9.45199427 51.8823924,8.43663812 C51.8323553,7.4133775 51.6842293,6.39500662 51.5790264,5.37404381 C51.5728867,5.31658019 51.5681807,5.25878568 51.5651476,5.20077058 C51.5064156,3.99931022 51.7971529,3.34581314 53.2395708,3.39816644 C54.7291581,3.45290946 56.2187454,3.50197229 57.7064944,3.58013458 C58.4383376,3.61818631 58.6957107,3.43384683 58.7438728,2.70762866 C58.7810054,2.14383807 58.7967224,1.5796063 58.8319065,1.01605469 C58.8847561,0.1707916 59.077478,-0.0300002035 59.9361603,0.00358458314 C60.449491,0.0237869261 60.9653217,0.113254445 61.4673839,0.226178005 C62.1743556,0.385149672 62.5448912,0.882947167 62.5939357,1.58615047 C62.6336418,2.16236761 62.6169873,2.74307008 62.6078512,3.32114386 C62.6003144,3.73017237 62.7273373,3.9497143 63.1858882,3.99600138 C64.5095185,4.13074494 65.8279466,4.31486383 67.1487644,4.47168475 C67.7724267,4.54591319 68.1224107,4.79835976 68.2067495,5.26205776 C68.3530556,6.06743087 68.178992,6.61897873 67.5711202,6.83901699 C66.7208571,7.1465926 65.841807,7.38093243 64.9627201,7.59764346 C64.3475321,7.74959302 63.7102484,7.81463022 63.0849868,7.92948394 C62.6654068,8.00626755 62.4373905,8.22671022 62.4411589,8.69869872 C62.4568576,11.0293395 62.4040447,13.3621127 62.4717106,15.6905292 C62.5068947,16.9124309 62.690315,18.1360054 63.2108516,19.2773734 C63.6313508,20.2018099 64.3494255,20.5660035 65.3480904,20.3985391 C66.8134864,20.1527103 68.1567859,19.6380376 69.3268674,18.7108071 C69.9761181,18.1963551 70.4031982,17.5668104 70.4355698,16.6973559 C70.4940812,15.1063157 70.5726847,13.5157718 70.6661044,11.9270662 C70.693145,11.4687175 70.7450939,10.9934569 70.8978891,10.5658989 C70.9830919,10.3287098 71.2942521,10.0150496 71.5109631,10.0086892 C72.7079565,9.97251251 73.9131117,9.9605639 75.1044617,10.0638918 C75.8539337,10.1286717 76.3687718,10.8298345 76.3291208,11.6232406 C76.2754072,12.734057 76.1317481,13.8409395 76.0260489,14.9494764 C75.8954781,16.3171879 75.7751097,17.6858553 75.6297227,19.0517285 C75.482479,20.434293 76.5883321,21.1198859 77.6825307,21.1332684 C78.6004597,21.1442979 79.1423568,20.8017404 79.5323778,19.8303551 C79.9362408,18.8249071 80.1762609,17.7349365 80.3504348,16.6599476 C80.5967968,15.1337608 80.7134152,13.5866179 80.8951996,12.0497876 C80.969189,11.4221363 81.3610115,10.9396147 81.8482759,10.8349081 C82.4116253,10.7139881 83.1507296,10.9425007 83.3351242,11.4574123 C83.4898495,11.8877645 83.4546103,12.4135401 83.4007496,12.8854734 C83.2017042,14.6357427 82.9146066,16.3772618 82.7506533,18.1310054 C82.64966,19.2082921 83.2536163,19.9751907 84.3002778,20.2935752 C84.8218438,20.4518299 85.3628034,20.5769778 85.9029541,20.6394415 C86.8515635,20.7479165 87.5233144,20.0554486 87.7214775,18.9772427 C87.8891992,18.0706741 87.9114788,17.137267 87.9929867,16.2152387 C88.0883182,15.1203232 88.1021418,14.0113267 88.2892571,12.9322017 C88.5644611,11.3345806 89.5964351,9.88536118 91.5084885,9.42039479 C92.6561801,9.14099952 93.8132651,9.10767208 94.9591553,9.24008107 C96.7063179,9.4410567 98.533867,10.6287118 99.0924921,12.6356188 C99.5167046,14.1613645 99.3481189,15.6352348 98.8489978,17.1030021 C98.2708505,18.8039143 97.2140419,20.1294197 95.7382598,21.1388566 C95.6020089,21.2318536 95.5224128,21.4083989 95.4177062,21.5464697 C95.6029464,21.6284188 95.7900984,21.7840632 95.9745114,21.7807912 C97.7383469,21.7538057 99.4018141,21.3503838 100.924913,20.4264621 C101.268573,20.2184092 101.642914,20.0608346 102.005894,19.8882415 C102.339389,19.7302258 102.535898,19.9173778 102.443121,20.2050084 C102.288341,20.6870705 102.102145,21.1956953 101.793871,21.5851464 C100.488568,23.235176 98.7080961,24.0262292 96.6487991,24.1647779 C95.7753005,24.2234364 94.8887504,24.1067628 94.0086525,24.0581412 C93.3443649,24.0210086 92.6813089,23.9632692 92.0170581,23.9182321 C91.6799235,23.8961548 91.485253,24.0377182 91.4008958,24.3861765 C90.8720871,26.5687097 90.5922506,28.7880446 90.3180208,31.0133538 C90.1449314,32.4144295 89.883551,33.8107992 89.5483281,35.1818563 C89.3667828,35.9257033 88.7858965,36.4385377 87.9816631,36.5681525 C87.5009797,36.6455979 87.1452603,36.4375634 86.9839541,35.9895456 C86.8480157,35.6117673 86.7210295,35.2152021 86.688658,34.8193355 C86.5300723,32.8654987 86.594889,30.9163862 86.854376,28.9719429 C86.9859026,27.9827082 87.0738996,26.9878302 87.1868783,25.9964631 C87.266695,25.3068629 87.370556,24.6195788 87.435391,23.9285631 C87.4862737,23.3704527 87.3592508,23.2387055 86.8248538,23.1323812 C85.7195705,22.9118834 84.6137174,22.6951356 83.5131953,22.4514391 C82.7655431,22.285188 82.1827451,22.5500059 81.6760137,23.0652116 C81.0026819,23.7501427 80.2587247,24.3453858 79.3758694,24.7302229 C78.3096489,25.1953548 77.1795126,25.0976519 76.0827772,24.9239007 C74.5006157,24.6719689 73.2369123,23.8400882 72.3385239,22.5051894 C72.0594962,22.0910322 71.8576015,21.6237496 71.6389787,21.1721657 C71.5166617,20.9193147 71.4065506,20.8209501 71.1100596,20.972146 C70.0585268,21.5075172 69.0109094,22.0571717 67.9254057,22.5157594 C66.7163717,23.0267371 65.4333667,23.2062971 64.1485418,22.8480227 C62.8960701,22.4981306 61.9354753,21.6918383 61.1378596,20.6840374 C60.9237589,20.413962 60.7134082,20.1420484 60.3818067,19.7173029 Z M96.4559117,14.7051365 C96.4420881,14.5318633 96.4420881,14.3573952 96.4133747,14.1869345 C96.2530427,13.1997771 95.2618779,12.7579358 94.4633615,13.3531788 C94.1022745,13.6222248 93.7742024,13.9755911 93.527822,14.3536819 C92.7051326,15.6147934 92.3336779,17.0595643 91.9622232,18.4963203 C91.8687299,18.8572235 91.8036743,19.238807 91.8111744,19.6092874 C91.8251267,20.2994024 92.2308831,20.5022714 92.8088833,20.1294013 C94.0085238,19.3554622 94.897096,18.2819623 95.6472298,17.0886453 C96.1030601,16.3637507 96.4763714,15.5990213 96.4559117,14.7051365 Z M49.3826144,15.4013177 C49.3931476,14.7154307 49.2330362,14.0807757 48.7279225,13.5874635 C48.4478838,13.3141161 48.0977528,13.1950895 47.6962243,13.3202558 C47.2092357,13.4711943 46.9459986,13.8325755 46.9093808,14.432267 C46.8385163,15.5940396 47.3374535,16.5922449 47.8509864,17.5748803 C48.1154,18.0809131 48.3666333,18.064902 48.7082349,17.5972334 C49.186069,16.9432767 49.3725041,16.1998893 49.3826144,15.4013177 Z M37.5389863,15.1794228 C37.4120001,14.7593097 37.3279738,14.3193251 37.1466123,13.923679 C36.915085,13.4202197 36.3182611,13.1936557 35.7904266,13.3317265 C35.2318015,13.4782716 35.0108993,13.7445234 35.0688592,14.4327266 C35.1198155,15.0317196 35.2574451,15.6290766 35.4168395,16.2109004 C35.5337521,16.6385136 35.713882,17.0576157 35.9268246,17.4471588 C36.2133339,17.9719234 36.5126926,17.9771073 36.7944408,17.4689972 C37.182789,16.7695072 37.4829014,16.0348514 37.5389863,15.1794228 Z" id="Shape"></path>
                </g>
            </g>
        </g>
    </g>
</svg>
