<?xml version="1.0" encoding="UTF-8"?>
<svg width="90px" height="67px" viewBox="0 0 90 67" version="1.1" xmlns="http://www.w3.org/2000/svg" xmlns:xlink="http://www.w3.org/1999/xlink">
    <title>nick</title>
    <defs>
        <polygon id="path-1" points="6.91983128e-06 7.26275963e-06 89.6741839 7.26275963e-06 89.6741839 66.329169 6.91983128e-06 66.329169"></polygon>
    </defs>
    <g id="Symbols" stroke="none" stroke-width="1" fill="none" fill-rule="evenodd">
        <g id="components/footer/desktop" transform="translate(-399.000000, -379.000000)">
            <g id="Group-3" transform="translate(85.000000, 379.000000)">
                <g id="nick" transform="translate(314.000000, 0.000000)">
                    <mask id="mask-2" fill="white">
                        <use xlink:href="#path-1"></use>
                    </mask>
                    <g id="Clip-2"></g>
                    <path d="M60.362351,40.2318755 C60.3134955,41.5418198 58.8341853,42.1022939 57.9022331,42.6382963 C56.6216021,43.1336297 56.338152,41.4928762 55.6473085,40.8949902 L53.0698493,37.0450866 L52.8873673,37.4572336 C52.7765401,38.8861037 52.6738994,40.2921746 52.3040939,41.5874183 C51.7175635,42.2097761 50.573816,41.8204283 49.7542755,41.7894425 C49.2182732,41.5971894 48.4492607,41.6917314 48.2228528,41.013916 L50.1762816,27.2223087 C50.3799784,26.4646519 50.3392214,25.6239847 50.8052415,24.9999544 C51.8837603,24.5910644 53.5146546,24.6073496 54.5296172,25.190623 C54.9532959,26.3147403 54.2999522,27.4047907 54.280322,28.5664079 C54.1548821,29.2017938 53.9381572,29.8112115 53.9137735,30.5035516 L54.0718717,30.6827765 C56.6199296,29.3436069 57.067992,26.6194931 57.9934301,24.3091988 C58.5848901,23.9067349 59.4598002,24.1642168 60.1244994,24.2113998 C60.7110298,24.3352551 61.2992328,24.504709 61.6544257,24.9869262 C61.0972086,28.62345 59.5053986,32.097034 56.1947544,34.1465894 C57.520984,36.2010744 59.2316316,38.1155068 60.362351,40.2318755 L60.362351,40.2318755 Z M44.3930196,29.897567 C42.9755931,31.502317 42.8208399,33.6659567 42.4917033,35.7611986 C42.6057875,36.6523938 42.3174079,37.7521273 43.0636211,38.3484289 C44.4272625,38.2523903 43.8684609,36.6491368 44.8036701,36.0381346 C45.6410802,35.48259 46.8890529,35.208823 47.8291917,35.7400719 C48.3276941,36.398257 48.0654588,37.4718463 47.9350893,38.2344326 C47.4235587,40.0477209 46.307452,41.9784386 44.3784069,42.7230672 C43.4008562,43.1336297 42.2115102,43.3323969 41.1085197,43.021218 C37.8890725,41.3154118 38.0829981,37.4718463 38.3518355,34.1172761 C39.0002496,30.6844491 40.6131862,26.5966939 44.5511178,25.7526816 C46.0468012,25.3633339 47.8063044,25.7754809 48.5216197,27.2858649 C48.8963548,28.488239 49.1520761,30.0799609 48.3749651,31.1862966 C47.5276958,31.9422808 46.3123816,32.0742348 45.2630881,31.8362951 C44.5119454,31.2856801 45.6834217,29.7720391 44.3930196,29.897567 L44.3930196,29.897567 Z M38.0994593,29.6603316 L36.05633,43.3492982 C34.9859098,44.2714793 33.0683083,43.9765856 31.9033461,43.3639989 C31.2093335,42.6748279 31.8447194,41.7103053 31.7013218,40.8141805 C32.3514085,36.4379577 32.8825693,31.9266118 33.9823028,27.553734 C34.8783396,26.6982782 36.4766636,26.8579609 37.6774532,27.1740694 C37.9169773,27.3337521 38.3047406,27.4934349 38.2982265,27.8436982 L38.0994593,29.6603316 Z M30.4757963,33.8972061 L29.1903238,42.6250921 C29.2163801,43.1920803 29.7410268,43.7542269 29.2505349,44.2820427 C28.0693755,44.8539605 26.3358406,44.8099465 25.1692938,44.2510569 L24.6560907,43.4625022 C23.6019557,39.9905908 22.5478206,36.492535 21.4921011,33.019039 L21.303105,33.4296015 L19.9736185,45.1178683 C19.8774919,45.6571277 19.380574,45.8330957 18.9292546,45.9666341 C17.7399086,46.0709473 16.1025002,46.2323025 15.4019735,45.1911956 L15.3074315,44.352113 C15.9460744,37.8742221 16.8307556,31.4825987 17.9794327,25.2490736 C18.0641156,24.82874 18.3085693,24.3953782 18.7321599,24.2617518 C20.296241,24.051541 21.8847059,24.4801492 23.1408651,25.2458165 C24.2960563,27.5381531 25.1449101,29.9185176 25.8454367,32.3624384 L26.0214046,32.1244987 L27.4648874,24.0434424 C27.5806442,23.5595526 27.9162068,23.1245183 28.4375966,23.0218777 C29.6024708,22.9909799 31.3213931,22.6373715 31.9698072,23.7485487 C31.6194558,27.1944919 30.855373,30.451351 30.4757963,33.8972061 L30.4757963,33.8972061 Z M67.3570541,46.5693617 C66.7705237,46.2663694 64.6052115,45.1339775 64.1963215,44.7087143 C63.7840865,44.2834511 63.0981725,43.5258824 62.9368172,42.7552855 C62.4480859,40.3553787 64.8707919,38.0303838 65.6185896,35.9172722 C66.6156825,33.0987044 64.3836451,31.2901696 64.6165671,28.5725699 C64.7127817,27.4239808 64.9783621,26.2932614 65.0971999,25.1446724 C65.1917419,24.2290054 64.2744024,22.5492555 64.0838218,21.6808595 C63.6569741,19.7305997 65.336724,18.6276091 66.614098,17.290024 C67.1077589,16.7718913 67.4400645,15.5206616 66.576598,15.1116837 C65.8662123,14.7744485 64.6898944,15.5907319 64.1637512,15.9833367 C62.2949172,17.381309 61.1869971,19.2353543 59.4274939,20.5533972 C59.3215962,20.5387845 59.2221246,20.5208268 59.1146425,20.5077987 C58.5916682,19.7941559 59.2400823,18.658595 58.7008229,17.9563958 C58.6796082,17.702259 57.7166701,17.5393192 57.1399989,18.0215365 C56.8060207,18.2170466 55.4422913,18.8166052 55.1539116,18.5787536 C54.3702866,18.0182794 53.4643907,17.425235 53.581732,15.8416116 C53.7331401,14.5577236 53.7853407,13.1826386 54.3457268,12.0047362 C54.3327867,11.4687338 54.1486321,11.0564988 53.7853407,11.1607239 C53.4171196,11.3611637 52.9805009,11.6658285 52.9771558,12.2996299 C53.2004828,13.2071103 52.6985473,13.9125665 52.1919463,14.4909984 C51.5629864,15.1572821 51.0465262,14.9161735 50.8542731,14.1651188 C50.060877,13.7040283 50.1210881,12.3175876 50.199345,11.1020973 C50.108148,11.0124848 49.9354371,11.0532418 49.9436237,10.8234888 C50.2123731,10.4487537 49.5997864,10.6459363 49.8653668,10.2646872 C49.8050676,9.59505834 49.3456496,9.45324527 48.969242,9.21380917 C45.8035799,7.20008116 43.1544659,10.0675925 42.8253293,13.1125683 C42.6477769,13.0914416 42.4799075,13.0328149 42.3446966,12.8959314 C41.9389756,12.4902105 42.2469855,12.4461965 41.2759489,12.3306158 C40.3049123,12.214947 39.8959343,11.8385394 39.3143334,11.9248948 C38.7310601,12.0112503 37.9262203,12.3175876 37.3330878,12.535897 C36.7384588,12.7557909 36.6586174,12.5114252 36.4500791,12.9675862 C36.2415408,13.4221627 36.1356432,14.2596609 35.4285144,14.2335166 C34.7182167,14.2074603 34.4639919,13.6454016 34.0061584,13.0637128 C33.5467404,12.4821119 32.9259671,12.2295596 32.8461257,11.985194 C32.7646998,11.7407403 32.8217419,11.4735754 32.8363546,10.8984006 C32.8526398,10.3265708 32.7239429,9.84268104 32.8868826,9.5168895 C33.0514069,9.19426696 33.0970935,9.02639761 32.9113544,8.43669819 C32.7256154,7.84523821 32.5170771,7.11531022 32.642517,6.41804061 C32.7728864,5.71742594 33.0335373,5.40131747 32.4958624,4.98265641 C31.956603,4.56557985 31.3911993,4.69260422 31.3911993,4.69260422 C31.3911993,4.69260422 30.1481562,4.93538538 29.9314313,5.44048992 C29.716379,5.94550642 29.8450759,6.47833977 30.1171704,7.36953502 C30.3875923,8.2655718 30.8323977,9.17146771 30.8323977,9.17146771 L30.6401446,11.4197903 C30.6401446,11.4197903 29.7342487,11.8645957 28.8088986,12.4821119 L27.8867175,13.1012127 C27.8867175,13.1012127 26.3193793,16.2244453 25.3564413,16.5259411 C23.86736,16.0648506 22.2136664,17.1092145 22.5752854,17.8651988 C23.1146328,18.1926629 23.1765165,18.7237357 23.1765165,19.2418683 C22.7838236,19.4292799 22.3651626,19.5530472 21.9366424,19.5579768 C20.1917518,19.5840331 17.41711,19.9326239 16.4069889,21.5864055 C16.3010913,21.7639579 16.18375,21.9284822 16.0664087,22.091422 C15.129615,21.3273391 16.1120952,21.4332368 14.9683477,21.8128134 C14.5870985,21.9383413 13.1467848,19.9147542 12.7721377,19.5953887 C11.8499566,18.8166052 10.4569139,17.7136146 9.2252264,17.563703 C7.55357511,17.3600943 5.47954793,19.3933645 6.45384159,21.2442407 C7.1121148,22.4954704 8.30137278,21.2540118 9.47117657,21.7590283 C12.1790932,22.9321772 12.0747801,25.9641248 12.6547964,28.2548769 C12.9724894,29.5061946 13.9174697,30.6059281 13.9207267,31.8571578 C13.9190542,32.2286358 13.8408854,32.609885 13.6340196,33.015606 C12.801451,34.6579439 11.338338,35.309615 11.1770707,37.3690296 C11.0076169,39.4837257 12.0698505,41.2482465 13.0881581,42.9214823 C14.0363955,44.4807218 13.902769,46.513904 14.9373619,47.9836191 C16.1006516,49.6356402 18.4777591,50.9585246 19.2776693,52.7638024 C20.7896378,56.1868583 21.1921018,52.9788548 18.285506,58.256044 C17.461124,59.7533118 16.6953686,60.5565671 16.6953686,60.5565671 C16.6953686,60.5565671 14.7891227,62.4839397 15.1752134,64.0838482 C15.5613922,65.6853412 17.0586601,66.5081387 18.6439559,66.2964314 C20.2308362,66.0829636 21.1432462,63.5462613 21.1432462,63.5462613 C21.1432462,63.5462613 21.43814,60.0921315 21.309355,59.5578017 C21.1823307,59.0249684 21.1122604,57.799795 21.1122604,57.799795 L21.7330337,56.6332482 C21.7330337,56.6332482 22.816482,56.201471 23.2042453,55.7127396 C23.593593,55.2255928 24.1866375,54.4044678 24.1866375,54.4044678 C24.1866375,54.4044678 25.3418286,53.1108087 25.8598733,53.1548227 C26.378006,53.1988367 27.3017716,52.5796479 27.3017716,52.5796479 L28.2712237,51.444087 C28.2712237,51.444087 29.5110977,51.2029783 30.5032611,51.809051 C31.4970969,52.4167961 31.9859163,52.8077284 32.692957,52.6921476 C33.3984132,52.5780634 34.9690964,52.5373064 34.9690964,52.5373064 C34.9690964,52.5373064 35.5311551,52.0631877 36.207298,52.2945253 C36.8850253,52.5258628 37.7338791,52.771901 38.1933852,53.508343 C38.2194415,53.5507725 38.2487548,53.6044696 38.2748111,53.6630962 C38.2829977,53.6827265 38.2895117,53.7021806 38.2992828,53.7218109 C38.3171525,53.7689939 38.3383673,53.8179374 38.356325,53.8716345 C38.3660961,53.8945218 38.3757791,53.9189055 38.3839657,53.9433773 C38.406853,54.008518 38.4279797,54.0736587 38.450779,54.143729 C38.4572931,54.1633592 38.4622226,54.1779719 38.4703212,54.1975141 C38.49805,54.2871266 38.5273633,54.3832531 38.5583492,54.4858937 C38.5631907,54.5103655 38.5713773,54.5364218 38.5794759,54.5608055 C38.6022751,54.643992 38.6267469,54.7270024 38.6495462,54.8117733 C38.6609898,54.8476007 38.6690884,54.8834281 38.680532,54.9160865 C38.7033312,55.0040264 38.727715,55.0920544 38.7537713,55.1815788 C38.7929437,55.3233039 38.8304436,55.4651169 38.8744576,55.6231272 C38.903771,55.7387959 38.9379258,55.8561372 38.9689117,55.971806 C38.9802673,56.0027038 38.9884539,56.0369467 38.9965524,56.0678445 C39.0242813,56.1640591 39.0503375,56.2552561 39.0780663,56.3497981 C39.0878375,56.3856255 39.0976086,56.4165233 39.1090522,56.4524387 C39.13995,56.5615934 39.1725204,56.6691636 39.2050907,56.7750613 C39.2083478,56.7896739 39.2132773,56.8011176 39.2182069,56.8141457 C39.2556188,56.9363285 39.2947032,57.0519973 39.3322031,57.1659935 C39.3403017,57.1872083 39.3484883,57.2050779 39.3534179,57.2263807 C39.3876607,57.3175777 39.4185586,57.4055177 39.4495444,57.4902886 C39.4641571,57.5196019 39.4740162,57.5472427 39.4836993,57.5749715 C39.4967274,57.6076299 39.5065865,57.6402002 39.5228717,57.6710981 C39.6808819,58.0556043 39.8470788,58.3716247 40.0295608,58.5410786 C40.8344006,59.3085065 42.1736582,59.9439804 43.2098355,60.0319204 C44.2460128,60.1231174 44.9515571,60.0091211 46.2826281,58.7269056 C47.6088576,57.4495316 47.3366751,56.5550794 48.2181873,56.4572803 C49.0979389,56.3563122 49.6453849,56.0565769 50.8266323,56.5029668 C52.0046227,56.9542862 54.3523289,58.0229459 54.8134194,58.759476 C55.2711649,59.4942455 55.963593,59.5528721 55.963593,59.5528721 C55.963593,59.5528721 56.9297881,58.4188957 55.96685,57.4642323 C55.0023275,56.5110654 52.4998681,55.2549061 52.7735471,54.055789 C53.0488986,52.8616015 53.6729289,51.6982237 54.5966945,51.0807955 C55.5204601,50.4600222 56.0679061,50.1601989 56.9753865,49.713809 C57.8845395,49.2706762 58.6209816,48.8112582 58.6209816,48.8112582 L59.7565425,49.7773652 L61.1105008,50.2417128 C61.1105008,50.2417128 61.815957,50.1293011 61.042103,49.018212 C60.2664885,47.9053623 60.5532837,48.6255192 59.9634962,47.3579163 L59.3769658,46.0871444 C59.3769658,46.0871444 62.2004632,45.6341524 63.0656022,45.7074797 C63.9290686,45.7824796 65.110316,46.2288694 65.110316,46.2288694 L66.7493089,47.4132859 L68.0592533,48.3957661 C68.0592533,48.3957661 68.1439362,49.4499012 69.0237758,49.3505176 C69.0237758,49.3505176 69.6608343,49.6698831 69.9149711,49.660112 C70.1658508,49.6551824 70.8517648,49.1550074 70.8517648,49.1550074 L69.5825774,47.9574748 C69.5825774,47.9574748 67.945257,46.8690969 67.3570541,46.5693617 L67.3570541,46.5693617 Z M76.2105559,50.2231389 C76.0085317,49.9982274 75.477459,49.5991086 75.477459,49.5991086 L75.0880232,50.0341429 C75.0880232,50.0341429 75.0196254,50.2035087 74.0339762,50.0829984 C73.0514079,49.9673296 72.7761444,49.8662735 72.7761444,49.8662735 C72.7761444,49.8662735 73.0384678,50.2475227 73.1442774,50.3600224 C73.243749,50.4741067 73.3773755,50.8650389 73.6135546,51.010021 C73.8530787,51.1501616 74.3548382,51.3131013 75.2249067,51.5998965 C76.0949752,51.8914451 76.5624918,52.0967264 76.5624918,52.0967264 C76.5624918,52.0967264 76.9861705,51.2104607 76.9290403,51.0932075 C76.8704137,50.9758662 76.4142527,50.4512194 76.2105559,50.2231389 L76.2105559,50.2231389 Z M89.5447699,56.1357141 C89.2563902,55.5573703 89.1374644,54.9169667 87.7200379,54.4722494 C86.3026114,54.0257715 86.1233865,53.9997152 85.0121213,53.93299 C83.9042892,53.8645042 83.3748009,53.8661768 82.2913526,53.6348392 C81.2079042,53.4034137 81.188362,53.2421464 80.4193496,53.064506 C79.6502492,52.8869535 79.3668871,52.75007 78.9660077,52.7012145 C78.5652163,52.655616 78.0585273,52.4976058 77.9086156,52.7109856 C77.758704,52.9277105 78.0829991,53.0579919 78.0829991,53.0579919 C78.0829991,53.0579919 80.0266568,54.2294682 80.5235747,54.3516511 C81.0220772,54.4689043 83.428498,55.4383564 83.8309619,55.8929329 C84.2399399,56.3426679 87.179106,57.3869438 87.7982068,57.4178416 C88.4173075,57.4456584 88.6063916,57.5531406 89.1146652,56.9845679 C89.6213542,56.4143226 89.831565,56.7189875 89.5447699,56.1357141 L89.5447699,56.1357141 Z M80.1141566,10.1741944 C81.0346652,9.92991677 81.1340488,9.49162547 81.33933,9.09893266 C81.5429387,8.70632788 81.3979566,8.90993659 81.0965488,8.4911875 C80.7968136,8.07419897 80.6712857,8.13608264 80.2770084,8.12789604 C79.8810585,8.12138197 77.9634571,8.71935602 77.686521,9.01424975 C77.4144266,9.31072797 75.8438314,9.87930068 75.5196244,9.94127238 C75.1986743,10.003156 73.9131138,10.729827 73.9131138,10.729827 C73.9131138,10.729827 73.702991,10.8112529 73.791019,10.9676786 C73.8789589,11.1224318 74.2080955,11.0328193 74.4654893,11.0182067 C74.7229712,11.0051785 74.9053651,10.9204076 75.4022831,10.8292106 C75.9008735,10.7428551 75.9171587,10.6321159 76.6209424,10.5180317 C77.3215571,10.4039474 77.6572077,10.4316762 78.365921,10.4349333 C79.0763068,10.4365178 79.190391,10.4251622 80.1141566,10.1741944 L80.1141566,10.1741944 Z M69.773246,14.3255938 L70.0843369,14.5781461 C70.0843369,14.5781461 70.3565194,14.2392384 70.4509734,14.0616859 C70.5455155,13.882461 70.7573108,13.4669689 70.7784375,13.379029 C70.7963952,13.2926735 70.4004454,12.740298 70.4004454,12.740298 C70.4004454,12.740298 70.13821,12.9374806 69.6331055,13.243818 C69.131258,13.5483948 68.8380368,13.7211057 68.7110124,13.8449611 C68.583812,13.9704009 68.5529142,14.2571961 68.5104847,14.345136 C68.4617172,14.4347485 68.3492174,14.7279697 68.3492174,14.7279697 C68.3492174,14.7279697 68.5089002,14.6253291 69.1084587,14.4233049 C69.7064328,14.2229532 69.773246,14.3255938 69.773246,14.3255938 L69.773246,14.3255938 Z M52.6062059,6.83573336 C53.3523311,6.37305831 53.7824358,5.39876466 54.4194942,5.0924273 C54.4748638,4.424471 55.2226615,4.44885475 55.4165871,3.81514134 C55.9803183,2.07509231 55.7147379,0.714619923 54.667205,0.049920666 C53.5363976,-0.18308939 51.7637782,0.400183988 50.4408937,1.7899697 C49.5919519,2.76584785 49.7320925,3.63424385 49.55454,4.62156564 C49.5724977,5.79462647 50.3333235,6.29973101 50.9573539,6.99541611 C51.3564727,7.19744032 52.0602564,6.88784592 52.6062059,6.83573336 L52.6062059,6.83573336 Z M3.1517361,13.5068456 C2.69390259,13.401036 1.96080559,13.404205 1.62673942,13.4417049 C1.28950424,13.4807893 0.751829349,14.3003298 0.735544174,14.4975125 C0.717674494,14.6978641 0.6638894,15.3593944 0.386953383,15.4685491 C0.109929338,15.5777038 -0.105123011,15.7600977 0.0545597404,16.239146 C0.214242491,16.7181942 0.857727006,16.9740035 0.857727006,16.9740035 C0.857727006,16.9740035 1.48501437,17.4269075 2.20191422,17.6224176 C2.91714154,17.8162552 3.30490478,17.9808676 4.03316024,17.2444255 C4.76150372,16.5063989 4.73535941,16.0387943 4.84618663,15.5158201 C4.95534133,14.9927579 4.35736728,14.2091328 4.35736728,14.2091328 C4.35736728,14.2091328 3.6079851,13.6111588 3.1517361,13.5068456 L3.1517361,13.5068456 Z M66.0956132,54.1367748 C64.8622532,53.3058787 64.7856688,53.5111599 64.1844378,53.064682 C63.5865517,52.6199647 63.0358487,52.2989267 62.879423,52.0138921 C62.7214128,51.7270969 62.1869949,51.2285065 62.1869949,51.2285065 C62.0354988,51.2725204 61.4929823,51.5332593 61.6477355,51.8508643 C61.8041612,52.1669727 62.2928926,52.4781516 62.6334728,52.7519186 C62.973965,53.0239251 63.6712347,53.747339 63.8732589,53.8581662 C64.0785401,53.9657364 65.0088198,54.7754177 65.5595228,55.4270889 C66.1118103,56.082105 66.5941156,56.487738 67.2392727,56.3916114 C67.8861903,56.2939004 68.7251849,56.0299925 68.2559958,55.5053457 C67.7835496,54.9790265 67.3289732,54.9710159 66.0956132,54.1367748 L66.0956132,54.1367748 Z" id="Fill-1" fill="#FF9900" mask="url(#mask-2)"></path>
                </g>
            </g>
        </g>
    </g>
</svg>
