<?xml version="1.0" encoding="UTF-8"?>
<svg width="76px" height="32px" viewBox="0 0 76 32" version="1.1" xmlns="http://www.w3.org/2000/svg" xmlns:xlink="http://www.w3.org/1999/xlink">
    <title>stripe</title>
    <g id="Symbols" stroke="none" stroke-width="1" fill="none" fill-rule="evenodd">
        <g id="components/footer/desktop" transform="translate(-707.000000, -402.000000)" fill="#FFFFFF" fill-rule="nonzero">
            <g id="Group-3" transform="translate(85.000000, 379.000000)">
                <path d="M629.941853,37.3943886 C628.304182,36.7794409 627.406686,36.3011482 627.406686,35.5495455 C627.406686,34.911708 627.922738,34.5473515 628.842613,34.5473515 C630.525209,34.5473515 632.252562,35.2079078 633.441653,35.7999658 L634.114691,31.5865491 C633.172437,31.1309753 631.243004,30.3793726 628.573398,30.3793726 C626.68889,30.3793726 625.118355,30.8803841 623.996737,31.8142506 C622.830025,32.7935548 622.22429,34.2057139 622.22429,35.913902 C622.22429,39.0113595 624.086419,40.3324721 627.115092,41.4484314 C629.066903,42.1544255 629.717563,42.6556079 629.717563,43.4299296 C629.717563,44.1815324 629.089282,44.6142164 627.945116,44.6142164 C626.531736,44.6142164 624.198648,43.9082223 622.673038,42.9972455 L622,47.2562709 C623.301151,48.0078737 625.72409,48.7821953 628.236879,48.7821953 C630.233447,48.7821953 631.893664,48.3039027 633.015451,47.392926 C634.271677,46.390732 634.922337,44.9104162 634.922337,42.9972455 C634.922337,39.8312897 633.015451,38.5103479 629.941853,37.3943886 Z M645.878897,34.911708 L646.551936,30.7210102 L642.998798,30.7210102 L642.998798,25.6336844 L638.221571,26.4317499 L637.531707,30.7210102 L635.851467,30.9977367 L635.222512,34.911708 L637.524808,34.911708 L637.524808,43.1339006 C637.524808,45.2747727 638.063239,46.7552594 639.162479,47.6662361 C640.082354,48.4178388 641.405884,48.7821953 643.268013,48.7821953 C644.703772,48.7821953 645.578722,48.531775 646.184457,48.3722302 L646.184457,43.9309412 C645.847938,44.0221584 645.085217,44.1815324 644.569165,44.1815324 C643.469925,44.1815324 642.998798,43.6121933 642.998798,42.3139703 L642.998798,34.911708 L645.878897,34.911708 Z M656.549248,30.4762268 C654.978881,30.4762268 653.722487,31.313239 653.228981,32.8164445 L652.892462,30.7210102 L648.024207,30.7210102 L648.024207,48.4405577 L653.587879,48.4405577 L653.587879,36.9388148 C654.283464,36.0732759 655.270475,35.7603359 656.616552,35.7603359 C656.908314,35.7603359 657.222286,35.7603359 657.603731,35.8286634 L657.603731,30.6128819 C657.222286,30.5218354 656.885767,30.4762268 656.549248,30.4762268 Z M661.75419,28.9672135 C663.369483,28.9672135 664.670634,27.6235527 664.670634,25.9836921 C664.670634,24.3209419 663.369483,23 661.75419,23 C660.116352,23 658.8152,24.3209419 658.8152,25.9836921 C658.8152,27.6235527 660.116352,28.9672135 661.75419,28.9672135 L661.75419,28.9672135 Z M658.949808,30.7210102 L664.536026,30.7210102 L664.536026,48.4405577 L658.949808,48.4405577 L658.949808,30.7210102 L658.949808,30.7210102 Z M680.366394,32.3152621 C679.379215,31.0170392 678.01076,30.3793726 676.26086,30.3793726 C674.645568,30.3793726 673.232187,31.0626478 671.908489,32.4975258 L671.616895,30.7210102 L666.726093,30.7210102 L666.726093,55 L672.289933,54.0663044 L672.289933,48.3722302 C673.142337,48.6455403 674.017286,48.7821953 674.802554,48.7821953 C676.193556,48.7821953 678.212671,48.4178388 679.783038,46.6869318 C681.286101,45.0241815 682.04899,42.4506254 682.04899,39.0569681 C682.04899,36.050557 681.488013,33.7730298 680.366394,32.3152621 Z M675.744808,43.2476659 C675.296059,44.1132048 674.600642,44.5687786 673.792996,44.5687786 C673.232187,44.5687786 672.738514,44.4548424 672.289933,44.227141 L672.289933,35.7999658 C673.232187,34.7979427 674.08459,34.6840066 674.398731,34.6840066 C675.812112,34.6840066 676.507529,36.2328207 676.507529,39.2619506 C676.507529,40.9928576 676.26086,42.3366892 675.744808,43.2476659 L675.744808,43.2476659 Z M698,39.4213246 C698,36.5971772 697.394265,34.3650878 696.205175,32.7935548 C694.993706,31.1993028 693.176502,30.3793726 690.865793,30.3793726 C686.131978,30.3793726 683.193155,33.9324038 683.193155,39.6263072 C683.193155,42.8149819 683.978255,45.2064452 685.526243,46.7323696 C686.917245,48.0989201 688.913982,48.7821953 691.493906,48.7821953 C693.871919,48.7821953 696.070567,48.2128563 697.461569,47.2789898 L696.855835,43.4072107 C695.487211,44.1588134 693.894466,44.5687786 692.099641,44.5687786 C691.022779,44.5687786 690.282437,44.3409063 689.744006,43.8626136 C689.16065,43.3616021 688.824131,42.5416718 688.71207,41.3801039 L697.932696,41.3801039 C697.955075,41.1067938 698,39.8312897 698,39.4213246 L698,39.4213246 Z M688.667145,37.9181191 C688.824131,35.3900007 689.497169,34.2057139 690.775942,34.2057139 C692.032337,34.2057139 692.682997,35.4128904 692.772679,37.9181191 L688.667145,37.9181191 L688.667145,37.9181191 Z" id="stripe"></path>
            </g>
        </g>
    </g>
</svg>